<svg xmlns="http://www.w3.org/2000/svg" xmlns:xlink="http://www.w3.org/1999/xlink" width="1080" zoomAndPan="magnify" viewBox="0 0 810 809.999993" height="1080" preserveAspectRatio="xMidYMid meet" version="1.0"><path fill="#333333" d="M 411.191406 262.046875 L 411.191406 262.109375 C 411.375 263.453125 410.949219 264.921875 409.605469 266.386719 L 390.59375 255.019531 C 390.410156 256.425781 391.695312 257.21875 392.671875 257.953125 C 398.050781 262.476562 415.59375 267.792969 407.035156 276.289062 C 406.792969 276.535156 406.546875 276.777344 406.242188 277.023438 L 387.902344 263.695312 C 387.660156 265.410156 388.578125 266.082031 389.554688 267.058594 C 393.222656 270.847656 403.308594 274.636719 404.898438 279.46875 C 405.628906 281.484375 404.773438 283.746094 401.230469 286.191406 C 401.230469 286.253906 401.230469 286.253906 401.167969 286.3125 C 401.109375 286.3125 401.109375 286.375 401.046875 286.375 L 383.929688 274.394531 C 383.257812 275.066406 385.703125 277.265625 386.316406 277.753906 C 388.699219 279.835938 396.707031 284.050781 397.929688 286.128906 C 398.417969 286.984375 398.601562 287.964844 398.480469 288.878906 L 398.480469 288.941406 C 398.234375 291.265625 396.339844 293.585938 393.957031 295.238281 C 389.859375 297.925781 384.296875 298.539062 383.257812 293.097656 C 384.726562 292.914062 385.277344 294.382812 386.558594 294.75 C 388.394531 295.359375 392.0625 295.480469 391.207031 292.851562 C 390.777344 291.507812 380.507812 287.78125 379.226562 285.089844 L 380.570312 289.734375 L 378.734375 289.917969 C 376.535156 296.335938 368.957031 302.632812 361.683594 300.921875 C 360.15625 300.617188 359.480469 299.085938 357.894531 299.148438 L 344.570312 299.269531 L 333.261719 299.269531 C 333.871094 298.90625 334.484375 298.476562 335.09375 297.988281 C 354.652344 283.683594 358.628906 271.765625 373.234375 254.710938 C 374.519531 253.246094 375.679688 251.71875 376.902344 250.433594 C 379.589844 247.5625 382.464844 245.605469 386.925781 246.460938 C 387.234375 246.460938 387.597656 246.523438 387.964844 246.644531 C 390.167969 247.253906 405.082031 255.140625 407.21875 256.730469 C 409.296875 258.257812 410.886719 260.03125 411.191406 262.046875 " fill-opacity="1" fill-rule="nonzero"/><path fill="#333333" d="M 305.816406 313.023438 C 304.714844 314.492188 303.796875 316.078125 303.066406 317.730469 L 303.003906 317.730469 C 302.578125 318.585938 302.210938 319.441406 301.84375 320.359375 C 300.621094 323.722656 299.886719 327.019531 299.703125 330.382812 C 299.582031 331.300781 299.582031 332.03125 299.582031 332.582031 L 299.582031 336.800781 C 294.570312 341.507812 290.289062 347.4375 287.601562 353.671875 L 299.582031 339.980469 L 299.582031 393.644531 C 295.609375 394.625 291.695312 394.929688 288.457031 393.828125 C 286.746094 393.277344 273.542969 382.523438 272.566406 380.808594 C 271.890625 379.769531 271.28125 378.609375 271.097656 377.449219 C 270.546875 360.394531 267.917969 348.660156 275.070312 336.921875 C 277.148438 333.4375 280.023438 330.015625 284.117188 326.410156 C 290.65625 320.664062 298.113281 316.691406 305.816406 313.023438 " fill-opacity="1" fill-rule="nonzero"/><path fill="#333333" d="M 416.019531 273.597656 C 416.019531 269.808594 415.46875 266.691406 416.019531 262.902344 C 416.144531 261.984375 415.347656 260.945312 417 261.191406 C 422.378906 263.695312 420.484375 271.15625 416.019531 273.597656 " fill-opacity="1" fill-rule="nonzero"/><path fill="#333333" d="M 284.117188 326.410156 C 290.65625 320.664062 298.113281 316.691406 305.816406 313.023438 C 304.714844 314.492188 303.796875 316.082031 303.066406 317.730469 L 303.003906 317.730469 C 300.5 318.769531 298.054688 319.871094 295.730469 321.152344 C 290.597656 323.84375 286.746094 326.898438 283.507812 330.808594 C 282.894531 332.339844 281.609375 335.210938 278.128906 336.128906 L 275.070312 336.921875 C 277.148438 333.4375 280.023438 330.015625 284.117188 326.410156 " fill-opacity="1" fill-rule="nonzero"/><path fill="#333333" d="M 334.175781 295.664062 C 332.894531 296.824219 331.546875 297.867188 330.144531 298.84375 C 329.46875 298.84375 328.980469 298.964844 328.371094 299.089844 C 321.035156 300.1875 314.375 303.671875 309.300781 308.867188 L 309.238281 308.867188 C 303.613281 310.945312 297.992188 312.964844 292.796875 315.773438 C 287.539062 318.523438 282.710938 322.070312 278.617188 327.144531 C 277.699219 328.183594 277.699219 329.894531 276.539062 330.199219 C 273.117188 312.78125 279.226562 297.5 291.695312 285.703125 L 288.335938 286.679688 C 286.992188 277.574219 285.035156 268.160156 287.113281 258.992188 C 287.417969 257.585938 287.847656 256.242188 288.394531 254.894531 C 292.429688 244.382812 302.148438 236.496094 313.089844 233.867188 C 313.761719 233.683594 315.351562 233.011719 315.230469 234.296875 C 307.832031 237.046875 301.292969 243.160156 297.441406 250.433594 C 298.664062 249.882812 299.886719 249.332031 301.109375 248.722656 L 301.171875 248.660156 L 301.230469 248.660156 C 308.503906 239.738281 319.261719 233.503906 330.511719 232.648438 C 332.464844 232.464844 334.421875 232.464844 336.378906 232.707031 C 337.292969 232.769531 338.148438 232.890625 339.066406 233.074219 L 339.128906 233.074219 C 339.800781 233.195312 340.535156 233.320312 341.207031 233.503906 C 343.40625 233.992188 345.609375 234.785156 347.808594 235.824219 C 352.207031 237.964844 354.714844 240.835938 357.21875 244.199219 L 357.28125 244.199219 L 357.28125 244.261719 L 357.34375 244.320312 L 357.402344 244.320312 C 357.832031 244.445312 358.136719 244.6875 358.625 244.871094 C 358.808594 244.933594 358.992188 244.992188 359.175781 245.117188 L 358.015625 241.144531 C 364.617188 242.183594 371.460938 243.832031 377.332031 247.074219 C 376.351562 247.988281 375.375 248.90625 374.519531 249.882812 C 363.761719 261.128906 357.402344 276.410156 344.628906 285.335938 C 334.117188 278.488281 323.664062 277.574219 311.746094 281.238281 C 311.621094 282.523438 313.210938 281.789062 314.007812 281.667969 C 323.910156 280.75 332.34375 281.546875 339.800781 288.820312 L 339.800781 290.222656 C 337.785156 291.9375 336.132812 293.953125 334.175781 295.664062 " fill-opacity="1" fill-rule="nonzero"/><path fill="#333333" d="M 349.03125 231.851562 C 347.929688 231.425781 346.707031 231.058594 345.363281 230.75 C 346.523438 230.324219 347.625 229.957031 348.785156 229.589844 C 349.335938 229.773438 349.886719 230.082031 350.4375 230.324219 C 353.1875 231.609375 355.324219 233.195312 357.097656 234.785156 L 358.992188 235.089844 C 367.855469 236.496094 374.640625 238.636719 380.265625 241.691406 L 382.707031 243.039062 C 381.121094 243.773438 380.019531 244.75 378.550781 244.503906 C 375.621094 244.078125 364.003906 240.53125 361.011719 239.25 C 356.730469 237.476562 353.125 233.503906 349.03125 231.851562 " fill-opacity="1" fill-rule="nonzero"/><path fill="#333333" d="M 386.925781 246.460938 L 383.929688 249.273438 L 381.484375 251.535156 C 380.632812 252.328125 379.835938 253.0625 379.101562 253.917969 C 374.945312 258.257812 371.585938 263.027344 368.039062 268.097656 C 362.476562 276.105469 356.671875 284.355469 348.113281 290.347656 L 345.914062 291.875 L 345.914062 293.035156 L 343.773438 294.871094 C 342.855469 295.664062 342 296.519531 341.207031 297.375 C 340.59375 297.988281 339.921875 298.660156 339.25 299.269531 L 333.257812 299.269531 C 333.871094 298.902344 334.480469 298.476562 335.09375 297.988281 C 354.652344 283.683594 358.625 271.765625 373.234375 254.710938 C 374.519531 253.246094 375.679688 251.71875 376.902344 250.433594 C 379.59375 247.5625 382.464844 245.605469 386.925781 246.460938 " fill-opacity="1" fill-rule="nonzero"/><path fill="#333333" d="M 377.332031 247.070312 C 376.351562 247.988281 375.375 248.90625 374.519531 249.882812 C 363.761719 261.128906 357.402344 276.410156 344.628906 285.335938 C 334.117188 278.488281 323.664062 277.574219 311.746094 281.238281 C 311.621094 282.523438 313.210938 281.789062 314.007812 281.667969 C 323.910156 280.75 332.34375 281.546875 339.800781 288.820312 L 339.800781 290.226562 C 337.785156 291.9375 336.132812 293.953125 334.175781 295.664062 C 332.894531 296.828125 331.546875 297.863281 330.144531 298.84375 C 329.472656 298.84375 328.980469 298.964844 328.371094 299.085938 C 321.035156 300.1875 314.375 303.671875 309.300781 308.867188 L 309.238281 308.867188 C 303.617188 310.945312 297.992188 312.960938 292.796875 315.773438 C 287.539062 318.523438 282.710938 322.070312 278.617188 327.144531 C 277.699219 328.183594 277.699219 329.894531 276.539062 330.199219 C 273.117188 312.777344 279.226562 297.5 291.695312 285.703125 L 288.335938 286.679688 C 286.992188 277.574219 285.035156 268.160156 287.113281 258.992188 C 287.417969 257.585938 287.84375 256.238281 288.394531 254.894531 C 292.429688 244.382812 302.148438 236.496094 313.089844 233.871094 C 313.761719 233.6875 315.351562 233.011719 315.230469 234.296875 C 307.832031 237.046875 301.292969 243.160156 297.441406 250.433594 C 295.304688 254.46875 294.019531 258.871094 293.835938 263.269531 L 297.625 253.613281 C 298.664062 251.902344 299.824219 250.25 301.109375 248.722656 L 301.171875 248.660156 L 301.230469 248.660156 C 308.503906 239.738281 319.261719 233.503906 330.507812 232.648438 C 332.464844 232.464844 334.421875 232.464844 336.378906 232.707031 C 337.292969 232.769531 338.152344 232.890625 339.066406 233.074219 L 339.128906 233.074219 C 339.800781 233.195312 340.535156 233.320312 341.207031 233.503906 C 343.40625 233.992188 345.605469 234.785156 347.808594 235.824219 C 352.207031 237.964844 354.714844 240.835938 357.222656 244.199219 L 357.28125 244.199219 L 357.28125 244.261719 L 357.34375 244.320312 L 357.402344 244.320312 C 358.261719 245.484375 359.175781 246.828125 360.09375 248.109375 L 359.175781 245.117188 L 358.015625 241.144531 C 364.617188 242.183594 371.460938 243.832031 377.332031 247.070312 " fill-opacity="1" fill-rule="nonzero"/><path fill="#333333" d="M 357.222656 244.199219 C 355.019531 243.160156 353.0625 241.753906 351.351562 240.410156 C 349.640625 239.1875 348.113281 238.085938 346.769531 237.535156 C 345.972656 237.230469 345.058594 236.925781 344.019531 236.742188 C 342.367188 236.3125 340.535156 236.070312 338.882812 235.824219 L 333.992188 234.96875 L 333.933594 234.96875 L 329.960938 234.296875 L 330.507812 232.648438 C 332.464844 232.464844 334.421875 232.464844 336.378906 232.707031 C 337.292969 232.769531 338.152344 232.890625 339.066406 233.074219 L 339.128906 233.074219 C 339.800781 233.199219 340.535156 233.320312 341.207031 233.503906 C 343.40625 233.992188 345.605469 234.785156 347.808594 235.824219 C 352.210938 237.964844 354.714844 240.835938 357.222656 244.199219 " fill-opacity="1" fill-rule="nonzero"/><path fill="#333333" d="M 377.332031 247.070312 C 376.351562 247.988281 375.375 248.90625 374.519531 249.882812 C 373.296875 249.578125 371.953125 249.210938 370.546875 248.785156 C 369.199219 248.417969 367.796875 247.988281 366.449219 247.5625 C 365.960938 247.4375 365.535156 247.253906 365.042969 247.132812 C 364.128906 246.828125 363.210938 246.523438 362.417969 246.214844 C 361.070312 245.789062 359.972656 245.421875 359.175781 245.117188 L 358.015625 241.144531 C 364.617188 242.183594 371.460938 243.832031 377.332031 247.070312 " fill-opacity="1" fill-rule="nonzero"/><path fill="#333333" d="M 398.480469 288.878906 L 398.480469 288.941406 C 398.234375 291.265625 396.339844 293.585938 393.957031 295.238281 L 393.464844 293.21875 C 394.199219 292.730469 395.605469 291.507812 397.074219 290.164062 C 397.5625 289.738281 397.988281 289.308594 398.480469 288.878906 " fill-opacity="1" fill-rule="nonzero"/><path fill="#333333" d="M 401.230469 286.191406 C 401.839844 285.210938 403.246094 282.585938 403.980469 281.238281 C 404.347656 280.566406 404.652344 279.957031 404.898438 279.46875 C 405.628906 281.484375 404.773438 283.746094 401.230469 286.191406 " fill-opacity="1" fill-rule="nonzero"/><path fill="#333333" d="M 411.191406 262.046875 L 411.191406 262.109375 C 410.460938 261.375 409.664062 260.703125 408.808594 260.03125 C 408.257812 259.480469 407.648438 258.992188 406.972656 258.5 C 406.121094 257.828125 405.265625 257.21875 404.347656 256.605469 C 403.734375 256.117188 403.125 255.75 402.453125 255.324219 C 398.417969 252.695312 394.015625 250.554688 389.492188 248.90625 C 387.902344 248.355469 386.988281 248.234375 386.5 248.234375 C 385.828125 248.234375 385.582031 248.355469 384.605469 248.90625 C 384.421875 249.027344 384.175781 249.148438 383.929688 249.273438 C 382.769531 249.882812 381.058594 250.679688 378.980469 250.679688 L 378.550781 250.679688 L 377.636719 250.554688 C 377.453125 250.496094 377.207031 250.496094 376.902344 250.433594 C 379.589844 247.5625 382.464844 245.605469 386.925781 246.460938 C 387.234375 246.460938 387.597656 246.523438 387.964844 246.644531 C 390.167969 247.253906 405.082031 255.140625 407.21875 256.730469 C 409.296875 258.257812 410.886719 260.03125 411.191406 262.046875 " fill-opacity="1" fill-rule="nonzero"/><path fill="#333333" d="M 416.019531 273.597656 C 416.019531 269.808594 415.46875 266.691406 416.019531 262.902344 C 416.144531 261.984375 415.347656 260.945312 417 261.191406 C 422.378906 263.695312 420.484375 271.15625 416.019531 273.597656 " fill-opacity="1" fill-rule="nonzero"/><path fill="#333333" d="M 449.089844 232.523438 L 449.089844 246.828125 C 448.660156 246.523438 448.230469 246.09375 447.804688 245.605469 C 447.5 245.175781 447.195312 244.75 446.886719 244.199219 C 446.09375 242.792969 445.484375 240.960938 445.238281 238.515625 C 445.054688 237.171875 445.117188 235.949219 445.359375 234.90625 C 445.175781 234.601562 444.992188 234.238281 444.808594 233.746094 C 444.6875 233.5625 444.625 233.320312 444.503906 233.074219 C 445.484375 232.585938 446.582031 232.15625 447.683594 231.789062 Z M 449.089844 232.523438 " fill-opacity="1" fill-rule="nonzero"/><path fill="#333333" d="M 448.90625 249.332031 C 448.84375 249.332031 448.84375 249.332031 448.84375 249.273438 C 449.027344 249.210938 449.210938 249.148438 449.457031 249.089844 C 449.457031 249.027344 449.457031 248.90625 449.394531 248.84375 C 452.757812 249.515625 449.699219 249.578125 448.90625 249.332031 " fill-opacity="1" fill-rule="nonzero"/><path fill="#333333" d="M 542.425781 381.789062 C 536.921875 383.683594 521.640625 381.789062 516.019531 379.527344 C 515.042969 379.160156 514.125 378.609375 513.207031 378.058594 L 514.859375 376.46875 L 514.859375 374.148438 C 517.058594 375.308594 519.441406 376.164062 522.007812 376.410156 C 524.515625 376.652344 528.121094 376.957031 528.855469 373.78125 C 529.648438 369.992188 519.199219 363.941406 514.859375 360.761719 L 514.859375 333.195312 C 514.859375 329.160156 514.125 325.1875 512.78125 321.398438 L 512.78125 321.277344 C 512.78125 321.277344 512.046875 319.320312 511.863281 318.953125 L 504.40625 298.964844 L 502.570312 305.933594 C 501.347656 304.773438 499.882812 303.671875 498.230469 302.570312 C 497.253906 297.253906 495.480469 290.222656 496.886719 287.292969 C 497.804688 285.394531 500.128906 284.722656 500.1875 282.585938 C 496.398438 283.683594 493.21875 286.375 489.125 284.664062 C 491.628906 289.613281 492.914062 294.6875 493.527344 299.941406 C 488.757812 297.804688 483.5625 296.644531 478.246094 296.644531 L 474.820312 296.644531 C 478.367188 293.710938 483.132812 292.425781 487.78125 292.914062 C 486.800781 286.742188 480.199219 290.285156 476.042969 290.835938 C 476.289062 276.839844 464.796875 271.703125 453.550781 267.425781 C 451.535156 267.242188 453 268.21875 453.671875 268.710938 C 459.722656 272.4375 466.632812 275.066406 469.6875 282.402344 C 471.03125 285.761719 471.15625 291.140625 470.847656 296.644531 L 407.21875 296.644531 L 405.628906 298.660156 L 396.21875 298.660156 C 396.707031 298.414062 397.195312 298.171875 397.683594 297.804688 C 398.90625 296.886719 404.53125 291.753906 405.628906 290.53125 C 407.15625 288.757812 410.824219 280.996094 411.3125 280.6875 C 412.171875 280.078125 413.761719 280.6875 415.59375 279.101562 C 418.710938 276.226562 422.132812 267.976562 421.460938 263.636719 C 420.847656 259.726562 418.222656 260.273438 416.328125 258.441406 C 409.421875 251.839844 400.863281 246.519531 391.570312 243.160156 C 386.988281 241.449219 384.542969 242.121094 382.707031 243.039062 C 381.121094 243.769531 380.019531 244.75 378.550781 244.503906 C 375.617188 244.078125 364.003906 240.53125 361.011719 239.25 C 356.730469 237.476562 353.125 233.503906 349.03125 231.851562 C 347.929688 231.425781 346.707031 231.058594 345.363281 230.753906 C 346.523438 230.324219 347.625 229.957031 348.785156 229.589844 C 346.464844 228.550781 344.140625 227.816406 341.695312 227.269531 C 350.3125 223.417969 360.519531 221.277344 367.671875 214.675781 C 369.628906 212.84375 371.15625 210.703125 372.441406 208.382812 C 373.296875 212.171875 374.761719 215.898438 377.207031 219.8125 C 377.328125 219.996094 377.453125 220.238281 377.574219 220.421875 C 378.550781 221.890625 379.652344 223.355469 380.9375 224.882812 C 387.902344 233.257812 401.960938 247.253906 417.917969 247.253906 C 421.339844 247.253906 424.519531 246.644531 427.574219 245.421875 C 429.222656 247.683594 431.730469 249.515625 433.929688 251.230469 C 430.507812 253.734375 421.707031 250.433594 421.460938 256.363281 C 430.140625 253.671875 440.652344 252.265625 447.683594 259.113281 C 447.5 254.589844 450.863281 255.203125 454.160156 254.40625 C 458.316406 258.808594 459.96875 266.753906 466.324219 268.527344 C 469.625 269.382812 472.558594 267.730469 473.292969 272.925781 C 474.882812 273.109375 472.5 266.140625 475.003906 267.425781 C 476.226562 268.039062 476.472656 271.335938 477.265625 272.683594 C 481.238281 279.894531 489.0625 282.523438 495.296875 276.410156 C 485.394531 279.222656 477.816406 269.808594 480.875 260.519531 L 477.386719 259.480469 L 478.792969 257.097656 C 476.898438 257.15625 475.859375 258.992188 474.089844 259.601562 C 472.316406 260.273438 469.6875 260.457031 467.730469 260.519531 C 467.976562 264.921875 471.398438 263.636719 474.636719 263.269531 C 473.84375 267.058594 466.816406 265.835938 464.613281 264.003906 C 462.78125 262.476562 460.457031 257.769531 460.824219 255.386719 C 461.375 251.839844 473.292969 249.824219 476.535156 246.949219 C 477.449219 246.09375 477.632812 246.335938 477.386719 244.6875 L 462.292969 250.554688 L 458.441406 254.222656 C 449.640625 240.289062 461.070312 241.878906 470.480469 238.085938 C 471.03125 237.84375 475.921875 236.070312 474.636719 234.96875 C 470.113281 236.679688 465.164062 237.597656 460.640625 239.308594 C 456.546875 240.835938 452.207031 245.972656 451.289062 237.84375 C 450.617188 231.609375 460.398438 231.242188 466.9375 229.039062 C 466.144531 228.671875 465.285156 228.429688 464.492188 228.183594 L 450.863281 232.21875 C 448.539062 227.757812 449.515625 225.738281 452.574219 224.273438 C 453.429688 223.84375 454.40625 223.539062 455.566406 223.171875 C 459.664062 221.828125 474.089844 218.34375 477.386719 219.445312 C 481.363281 220.605469 489.246094 233.929688 491.507812 238.207031 C 491.507812 238.269531 491.570312 238.332031 491.570312 238.390625 C 495.726562 246.335938 498.171875 255.445312 502.082031 263.085938 C 514.734375 287.292969 541.75 312.472656 545.664062 340.285156 C 546.824219 349.027344 546.152344 356.664062 546.398438 365.101562 C 546.519531 370.664062 550.308594 379.097656 542.425781 381.789062 " fill-opacity="1" fill-rule="nonzero"/><path fill="#333333" d="M 398.480469 288.941406 C 398.234375 291.265625 396.339844 293.585938 393.957031 295.238281 L 393.464844 293.21875 C 394.199219 292.730469 395.605469 291.507812 397.074219 290.164062 C 397.5625 289.796875 398.050781 289.367188 398.480469 288.941406 " fill-opacity="1" fill-rule="nonzero"/><path fill="#333333" d="M 401.230469 286.191406 C 401.839844 285.210938 403.246094 282.585938 403.980469 281.238281 C 404.347656 280.566406 404.652344 279.957031 404.898438 279.46875 C 405.628906 281.484375 404.773438 283.746094 401.230469 286.191406 " fill-opacity="1" fill-rule="nonzero"/><path fill="#333333" d="M 416.019531 262.902344 C 416.144531 261.984375 415.347656 260.949219 417 261.191406 C 422.378906 263.699219 420.484375 271.152344 416.019531 273.601562 C 416.019531 269.808594 415.46875 266.691406 416.019531 262.902344 " fill-opacity="1" fill-rule="nonzero"/><path fill="#333333" d="M 444.808594 233.746094 C 444.6875 233.5625 444.625 233.320312 444.503906 233.074219 C 445.484375 232.585938 446.582031 232.15625 447.683594 231.792969 L 449.089844 232.523438 L 449.089844 246.828125 C 448.660156 246.523438 448.234375 246.09375 447.804688 245.605469 C 447.5 245.175781 447.195312 244.75 446.890625 244.199219 C 446.09375 242.792969 445.484375 240.960938 445.238281 238.515625 C 445.054688 237.171875 445.117188 235.949219 445.359375 234.90625 C 445.175781 234.601562 444.992188 234.234375 444.808594 233.746094 " fill-opacity="1" fill-rule="nonzero"/><path fill="#333333" d="M 448.84375 249.273438 C 449.027344 249.210938 449.210938 249.152344 449.457031 249.089844 C 449.457031 249.027344 449.457031 248.90625 449.394531 248.84375 C 452.757812 249.515625 449.699219 249.578125 448.90625 249.335938 C 448.84375 249.335938 448.84375 249.335938 448.84375 249.273438 " fill-opacity="1" fill-rule="nonzero"/><path fill="#333333" d="M 357.222656 244.199219 C 355.019531 243.097656 353.0625 241.691406 351.351562 240.410156 C 349.640625 239.1875 348.113281 238.085938 346.769531 237.535156 C 345.972656 237.230469 345.058594 236.925781 344.019531 236.742188 C 342.367188 236.3125 340.535156 236.070312 338.882812 235.824219 L 333.992188 234.96875 L 333.933594 234.96875 L 329.960938 234.296875 L 330.507812 232.648438 C 332.464844 232.464844 334.421875 232.464844 336.378906 232.707031 C 337.292969 232.769531 338.152344 232.890625 339.066406 233.074219 L 339.128906 233.074219 C 339.800781 233.199219 340.535156 233.320312 341.207031 233.503906 C 343.40625 233.992188 345.605469 234.785156 347.808594 235.824219 C 352.210938 237.964844 354.714844 240.835938 357.222656 244.199219 " fill-opacity="1" fill-rule="nonzero"/><path fill="#333333" d="M 357.222656 244.199219 L 357.28125 244.199219 L 357.28125 244.261719 Z M 357.222656 244.199219 " fill-opacity="1" fill-rule="nonzero"/><path fill="#333333" d="M 377.332031 247.070312 C 376.351562 247.988281 375.375 248.90625 374.519531 249.882812 C 373.296875 249.578125 371.953125 249.210938 370.546875 248.785156 C 369.199219 248.417969 367.796875 247.988281 366.449219 247.5625 C 365.960938 247.4375 365.535156 247.253906 365.042969 247.132812 C 364.128906 246.828125 363.210938 246.523438 362.417969 246.214844 C 361.070312 245.789062 359.972656 245.421875 359.175781 245.117188 L 358.015625 241.144531 C 364.617188 242.183594 371.460938 243.832031 377.332031 247.070312 " fill-opacity="1" fill-rule="nonzero"/><path fill="#333333" d="M 402.453125 255.324219 C 398.417969 252.695312 394.015625 250.554688 389.492188 248.90625 C 387.902344 248.355469 386.988281 248.234375 386.5 248.234375 C 385.828125 248.234375 385.582031 248.355469 384.605469 248.90625 C 384.421875 249.027344 384.175781 249.148438 383.929688 249.273438 C 382.769531 249.882812 381.058594 250.679688 378.980469 250.679688 L 378.550781 250.679688 L 377.636719 250.554688 C 377.453125 250.496094 377.207031 250.496094 376.902344 250.433594 C 379.59375 247.5625 382.464844 245.605469 386.925781 246.460938 C 387.230469 246.460938 387.597656 246.523438 387.964844 246.644531 C 390.167969 247.253906 405.082031 255.140625 407.21875 256.730469 C 409.296875 258.257812 410.886719 260.03125 411.191406 262.046875 C 410.457031 261.3125 409.664062 260.640625 408.808594 260.03125 C 408.257812 259.480469 407.648438 258.992188 406.976562 258.5 C 406.117188 257.828125 405.265625 257.21875 404.347656 256.605469 C 403.734375 256.117188 403.125 255.691406 402.453125 255.324219 " fill-opacity="1" fill-rule="nonzero"/><path fill="#333333" d="M 542.425781 381.789062 C 536.921875 383.683594 521.640625 381.789062 516.019531 379.527344 C 515.042969 379.160156 514.125 378.609375 513.207031 378.058594 L 514.859375 376.46875 L 514.859375 374.148438 C 517.058594 375.308594 519.441406 376.164062 522.007812 376.410156 C 524.515625 376.652344 528.121094 376.957031 528.855469 373.78125 C 529.648438 369.992188 519.199219 363.941406 514.859375 360.761719 L 514.859375 333.195312 C 514.859375 329.160156 514.125 325.1875 512.78125 321.398438 L 512.78125 321.277344 C 512.78125 321.277344 512.046875 319.320312 511.863281 318.953125 L 504.40625 298.964844 L 502.570312 305.933594 C 501.347656 304.773438 499.882812 303.671875 498.230469 302.570312 C 497.253906 297.253906 495.480469 290.222656 496.886719 287.292969 C 497.804688 285.394531 500.128906 284.722656 500.1875 282.585938 C 496.398438 283.683594 493.21875 286.375 489.125 284.664062 C 491.628906 289.613281 492.914062 294.6875 493.527344 299.941406 C 488.757812 297.804688 483.5625 296.644531 478.246094 296.644531 L 474.820312 296.644531 C 478.367188 293.710938 483.132812 292.425781 487.78125 292.914062 C 486.800781 286.742188 480.199219 290.285156 476.042969 290.835938 C 476.289062 276.839844 464.796875 271.703125 453.550781 267.425781 C 451.535156 267.242188 453 268.21875 453.671875 268.710938 C 459.722656 272.4375 466.632812 275.066406 469.6875 282.402344 C 471.03125 285.761719 471.15625 291.140625 470.847656 296.644531 L 407.21875 296.644531 L 405.628906 298.660156 L 396.21875 298.660156 C 396.707031 298.414062 397.195312 298.171875 397.683594 297.804688 C 398.90625 296.886719 404.53125 291.753906 405.628906 290.53125 C 407.15625 288.757812 410.824219 280.996094 411.3125 280.6875 C 412.171875 280.078125 413.761719 280.6875 415.59375 279.101562 C 418.710938 276.226562 422.132812 267.976562 421.460938 263.636719 C 420.847656 259.726562 418.222656 260.273438 416.328125 258.441406 C 409.421875 251.839844 400.863281 246.519531 391.570312 243.160156 C 386.988281 241.449219 384.542969 242.121094 382.707031 243.039062 C 381.121094 243.769531 380.019531 244.75 378.550781 244.503906 C 375.617188 244.078125 364.003906 240.53125 361.011719 239.25 C 356.730469 237.476562 353.125 233.503906 349.03125 231.851562 C 347.929688 231.425781 346.707031 231.058594 345.363281 230.753906 C 346.523438 230.324219 347.625 229.957031 348.785156 229.589844 C 346.464844 228.550781 344.140625 227.816406 341.695312 227.269531 C 350.3125 223.417969 360.519531 221.277344 367.671875 214.675781 C 369.628906 212.84375 371.15625 210.703125 372.441406 208.382812 C 373.296875 212.171875 374.761719 215.898438 377.207031 219.8125 C 377.328125 219.996094 377.453125 220.238281 377.574219 220.421875 C 378.550781 221.890625 379.652344 223.355469 380.9375 224.882812 C 387.902344 233.257812 401.960938 247.253906 417.917969 247.253906 C 421.339844 247.253906 424.519531 246.644531 427.574219 245.421875 C 429.222656 247.683594 431.730469 249.515625 433.929688 251.230469 C 430.507812 253.734375 421.707031 250.433594 421.460938 256.363281 C 430.140625 253.671875 440.652344 252.265625 447.683594 259.113281 C 447.5 254.589844 450.863281 255.203125 454.160156 254.40625 C 458.316406 258.808594 459.96875 266.753906 466.324219 268.527344 C 469.625 269.382812 472.558594 267.730469 473.292969 272.925781 C 474.882812 273.109375 472.5 266.140625 475.003906 267.425781 C 476.226562 268.039062 476.472656 271.335938 477.265625 272.683594 C 481.238281 279.894531 489.0625 282.523438 495.296875 276.410156 C 485.394531 279.222656 477.816406 269.808594 480.875 260.519531 L 477.386719 259.480469 L 478.792969 257.097656 C 476.898438 257.15625 475.859375 258.992188 474.089844 259.601562 C 472.316406 260.273438 469.6875 260.457031 467.730469 260.519531 C 467.976562 264.921875 471.398438 263.636719 474.636719 263.269531 C 473.84375 267.058594 466.816406 265.835938 464.613281 264.003906 C 462.78125 262.476562 460.457031 257.769531 460.824219 255.386719 C 461.375 251.839844 473.292969 249.824219 476.535156 246.949219 C 477.449219 246.09375 477.632812 246.335938 477.386719 244.6875 L 462.292969 250.554688 L 458.441406 254.222656 C 449.640625 240.289062 461.070312 241.878906 470.480469 238.085938 C 471.03125 237.84375 475.921875 236.070312 474.636719 234.96875 C 470.113281 236.679688 465.164062 237.597656 460.640625 239.308594 C 456.546875 240.835938 452.207031 245.972656 451.289062 237.84375 C 450.617188 231.609375 460.398438 231.242188 466.9375 229.039062 C 466.144531 228.671875 465.285156 228.429688 464.492188 228.183594 L 450.863281 232.21875 C 448.539062 227.757812 449.515625 225.738281 452.574219 224.273438 C 453.429688 223.84375 454.40625 223.539062 455.566406 223.171875 C 459.664062 221.828125 474.089844 218.34375 477.386719 219.445312 C 481.363281 220.605469 489.246094 233.929688 491.507812 238.207031 C 491.507812 238.269531 491.570312 238.332031 491.570312 238.390625 C 495.726562 246.335938 498.171875 255.445312 502.082031 263.085938 C 514.734375 287.292969 541.75 312.472656 545.664062 340.285156 C 546.824219 349.027344 546.152344 356.664062 546.398438 365.101562 C 546.519531 370.664062 550.308594 379.097656 542.425781 381.789062 " fill-opacity="1" fill-rule="nonzero"/><path fill="#333333" d="M 540.710938 355.625 C 538.941406 357.339844 534.84375 356.421875 534.171875 353.914062 C 534.660156 345.96875 535.394531 338.816406 533.5 330.992188 C 531.117188 320.785156 525.492188 311.558594 521.582031 301.898438 C 529.648438 313.269531 538.328125 327.144531 540.710938 341.078125 C 541.203125 343.890625 542.484375 353.855469 540.710938 355.625 M 473.964844 273.601562 L 479.835938 280.507812 L 487.78125 284.664062 C 481.542969 285.578125 475.1875 279.222656 473.964844 273.601562 M 546.398438 365.101562 C 546.152344 356.664062 546.824219 349.027344 545.664062 340.285156 C 541.75 312.472656 514.734375 287.292969 502.082031 263.085938 C 498.171875 255.445312 495.726562 246.339844 491.570312 238.390625 C 491.570312 238.332031 491.507812 238.269531 491.507812 238.210938 C 489.246094 233.929688 481.363281 220.605469 477.386719 219.445312 C 474.089844 218.34375 459.664062 221.828125 455.566406 223.171875 C 454.40625 223.539062 453.429688 223.84375 452.574219 224.273438 C 449.515625 225.742188 448.539062 227.757812 450.863281 232.21875 L 464.492188 228.183594 L 471.886719 225.984375 C 470.910156 227.390625 469.136719 228.308594 466.9375 229.039062 C 460.398438 231.242188 450.617188 231.609375 451.289062 237.84375 C 452.207031 245.972656 456.546875 240.835938 460.640625 239.308594 C 465.164062 237.597656 470.117188 236.679688 474.636719 234.96875 C 475.921875 236.070312 471.03125 237.84375 470.480469 238.085938 C 461.070312 241.875 449.640625 240.289062 458.441406 254.222656 L 462.292969 250.554688 L 477.386719 244.6875 C 477.632812 246.339844 477.449219 246.09375 476.535156 246.949219 C 473.292969 249.824219 461.375 251.839844 460.824219 255.382812 C 460.457031 257.769531 462.78125 262.476562 464.613281 264.003906 C 466.816406 265.835938 473.84375 267.058594 474.636719 263.269531 C 471.398438 263.636719 467.976562 264.917969 467.730469 260.519531 C 469.6875 260.457031 472.316406 260.273438 474.089844 259.601562 C 475.859375 258.992188 476.898438 257.15625 478.792969 257.097656 L 477.386719 259.480469 L 480.875 260.519531 C 477.816406 269.808594 485.394531 279.222656 495.296875 276.410156 C 489.0625 282.523438 481.238281 279.894531 477.265625 272.683594 C 476.472656 271.335938 476.226562 268.039062 475.003906 267.425781 C 472.5 266.140625 474.882812 273.109375 473.292969 272.925781 C 472.558594 267.730469 469.625 269.382812 466.324219 268.527344 C 459.96875 266.753906 458.316406 258.808594 454.160156 254.40625 C 450.863281 255.199219 447.5 254.589844 447.683594 259.113281 C 440.652344 252.265625 430.140625 253.671875 421.460938 256.363281 C 421.707031 250.433594 430.507812 253.734375 433.929688 251.226562 C 431.730469 249.515625 429.222656 247.683594 427.574219 245.421875 C 424.519531 246.644531 421.339844 247.253906 417.917969 247.253906 C 401.960938 247.253906 387.902344 233.257812 380.9375 224.882812 C 379.652344 223.355469 378.550781 221.886719 377.574219 220.421875 C 377.453125 220.238281 377.328125 219.996094 377.207031 219.8125 C 374.761719 215.898438 373.296875 212.171875 372.441406 208.378906 C 371.15625 210.703125 369.628906 212.84375 367.671875 214.675781 C 360.519531 221.277344 350.3125 223.417969 341.695312 227.269531 C 344.140625 227.816406 346.464844 228.550781 348.785156 229.589844 C 347.625 229.957031 346.523438 230.324219 345.363281 230.753906 C 346.707031 231.058594 347.929688 231.425781 349.03125 231.851562 C 353.125 233.503906 356.730469 237.476562 361.011719 239.25 C 364.003906 240.53125 375.617188 244.078125 378.550781 244.503906 C 380.019531 244.75 381.121094 243.769531 382.707031 243.039062 C 384.542969 242.121094 386.988281 241.449219 391.570312 243.160156 C 400.863281 246.523438 409.421875 251.839844 416.328125 258.441406 C 418.222656 260.273438 420.847656 259.722656 421.460938 263.636719 C 422.132812 267.976562 418.710938 276.226562 415.59375 279.101562 C 413.761719 280.691406 412.171875 280.078125 411.3125 280.691406 C 410.824219 280.996094 407.15625 288.757812 405.628906 290.53125 C 404.53125 291.753906 398.90625 296.886719 397.683594 297.804688 C 397.195312 298.171875 396.707031 298.414062 396.21875 298.660156 L 405.628906 298.660156 L 407.21875 296.644531 L 470.847656 296.644531 C 471.15625 291.140625 471.03125 285.761719 469.6875 282.402344 C 466.632812 275.066406 459.722656 272.4375 453.671875 268.710938 C 453 268.222656 451.535156 267.242188 453.550781 267.425781 C 464.796875 271.703125 476.289062 276.839844 476.042969 290.835938 C 480.199219 290.285156 486.800781 286.742188 487.78125 292.914062 C 483.132812 292.425781 478.367188 293.707031 474.820312 296.644531 L 478.246094 296.644531 C 483.5625 296.644531 488.757812 297.804688 493.527344 299.945312 C 492.914062 294.6875 491.628906 289.613281 489.125 284.664062 C 493.21875 286.375 496.398438 283.683594 500.1875 282.585938 C 500.128906 284.722656 497.804688 285.394531 496.886719 287.292969 C 495.480469 290.226562 497.253906 297.253906 498.230469 302.570312 C 499.882812 303.671875 501.347656 304.773438 502.570312 305.933594 L 504.40625 298.964844 L 511.863281 318.953125 C 512.046875 319.320312 512.78125 321.277344 512.78125 321.277344 L 512.78125 321.398438 C 514.125 325.1875 514.855469 329.160156 514.855469 333.195312 L 514.855469 360.761719 C 519.199219 363.941406 529.648438 369.992188 528.855469 373.78125 C 528.121094 376.957031 524.515625 376.652344 522.007812 376.410156 C 519.441406 376.164062 517.058594 375.308594 514.855469 374.148438 L 514.855469 376.46875 L 513.207031 378.058594 C 514.125 378.609375 515.039062 379.160156 516.019531 379.527344 C 521.640625 381.789062 536.921875 383.683594 542.425781 381.789062 C 550.308594 379.097656 546.519531 370.664062 546.398438 365.101562 " fill-opacity="1" fill-rule="nonzero"/><path fill="#333333" d="M 448.90625 249.332031 C 448.84375 249.332031 448.84375 249.332031 448.84375 249.273438 L 448.785156 249.273438 C 445.300781 247.988281 447.132812 245.851562 445.972656 243.222656 C 445.542969 242.242188 443.40625 241.019531 442.546875 239.738281 C 440.347656 236.375 441.9375 234.417969 444.503906 233.074219 C 445.484375 232.585938 446.582031 232.15625 447.683594 231.792969 L 449.089844 232.523438 L 449.089844 248.78125 C 449.210938 248.78125 449.273438 248.84375 449.394531 248.84375 C 452.757812 249.515625 449.699219 249.578125 448.90625 249.332031 " fill-opacity="1" fill-rule="nonzero"/><path fill="#333333" d="M 454.039062 175.800781 C 452.9375 178.980469 451.777344 182.34375 450.863281 185.949219 C 450.433594 187.660156 450.066406 189.433594 449.761719 191.265625 C 449.089844 195.300781 448.539062 199.394531 447.378906 203.246094 C 446.03125 207.707031 442.855469 214.1875 439.0625 220.179688 C 435.457031 225.925781 431.300781 231.242188 427.695312 233.871094 C 414.066406 243.832031 397.257812 228.675781 388.699219 218.40625 C 388.453125 218.097656 388.210938 217.792969 387.964844 217.488281 C 381.667969 209.542969 381.242188 203 381.304688 192.671875 C 380.140625 191.390625 378.429688 189.984375 376.78125 188.578125 C 374.578125 186.621094 372.5 184.542969 371.644531 182.34375 C 370.667969 179.714844 371.402344 177.390625 370.972656 174.761719 C 370.972656 174.640625 370.914062 174.519531 370.851562 174.394531 C 370.117188 170.851562 367.246094 169.140625 368.710938 164.554688 C 370.300781 159.300781 375.558594 162.601562 378.003906 165.289062 C 377.636719 156.976562 376.71875 149.640625 377.820312 142.796875 C 378.859375 136.683594 381.484375 131 387.660156 125.558594 C 409.054688 106.855469 445.175781 117.671875 455.8125 142.980469 C 456.058594 143.589844 456.300781 144.203125 456.546875 144.753906 L 456.546875 144.8125 C 460.945312 156.792969 457.585938 165.71875 454.039062 175.800781 " fill-opacity="1" fill-rule="nonzero"/><path fill="#333333" d="M 454.039062 175.800781 C 452.9375 178.980469 451.777344 182.34375 450.863281 185.949219 C 450.433594 187.660156 450.066406 189.433594 449.761719 191.265625 C 449.089844 195.300781 448.539062 199.394531 447.378906 203.246094 C 446.03125 207.707031 442.855469 214.1875 439.0625 220.179688 C 435.457031 225.925781 431.300781 231.242188 427.695312 233.871094 C 414.066406 243.832031 397.257812 228.675781 388.699219 218.40625 C 388.453125 218.097656 388.210938 217.792969 387.964844 217.488281 C 381.667969 209.542969 381.242188 203 381.304688 192.671875 C 380.140625 191.390625 378.429688 189.984375 376.78125 188.578125 C 374.578125 186.621094 372.5 184.542969 371.644531 182.34375 C 370.667969 179.714844 371.402344 177.390625 370.972656 174.761719 C 370.972656 174.640625 370.914062 174.519531 370.851562 174.394531 C 370.117188 170.851562 367.246094 169.140625 368.710938 164.554688 C 370.300781 159.300781 375.558594 162.601562 378.003906 165.289062 C 377.636719 156.976562 376.71875 149.640625 377.820312 142.796875 C 378.859375 136.683594 381.484375 131 387.660156 125.558594 C 409.054688 106.855469 445.175781 117.671875 455.8125 142.980469 C 456.058594 143.589844 456.300781 144.203125 456.546875 144.753906 L 456.546875 144.8125 C 460.945312 156.792969 457.585938 165.71875 454.039062 175.800781 " fill-opacity="1" fill-rule="nonzero"/><path fill="#333333" d="M 454.039062 175.800781 C 452.9375 178.980469 451.777344 182.34375 450.863281 185.949219 C 450.433594 187.660156 450.066406 189.433594 449.761719 191.265625 C 449.089844 195.300781 448.539062 199.394531 447.378906 203.246094 C 446.03125 207.707031 442.855469 214.1875 439.0625 220.179688 C 435.457031 225.925781 431.300781 231.242188 427.695312 233.871094 C 414.066406 243.832031 397.257812 228.675781 388.699219 218.40625 C 388.453125 218.097656 388.210938 217.792969 387.964844 217.488281 C 381.667969 209.542969 381.242188 203 381.304688 192.671875 C 380.140625 191.390625 378.429688 189.984375 376.78125 188.578125 C 374.578125 186.621094 372.5 184.542969 371.644531 182.34375 C 370.667969 179.714844 371.402344 177.390625 370.972656 174.761719 C 370.972656 174.640625 370.914062 174.519531 370.851562 174.394531 C 370.117188 170.851562 367.246094 169.140625 368.710938 164.554688 C 370.300781 159.300781 375.558594 162.601562 378.003906 165.289062 C 377.636719 156.976562 376.71875 149.640625 377.820312 142.796875 C 378.859375 136.683594 381.484375 131 387.660156 125.558594 C 409.054688 106.855469 445.175781 117.671875 455.8125 142.980469 C 456.058594 143.589844 456.300781 144.203125 456.546875 144.753906 L 456.546875 144.8125 C 460.945312 156.792969 457.585938 165.71875 454.039062 175.800781 " fill-opacity="1" fill-rule="nonzero"/><path fill="#333333" d="M 487.753906 284.675781 C 481.515625 285.585938 475.175781 279.199219 473.960938 273.621094 L 479.84375 280.519531 Z M 487.753906 284.675781 " fill-opacity="1" fill-rule="nonzero"/><path fill="#d33200" d="M 379.007812 305.074219 L 396.425781 305.074219 L 396.425781 349.667969 L 382.769531 363.363281 L 381.875 364.257812 L 373.917969 372.25 L 371.730469 374.4375 L 366.746094 379.457031 L 364.632812 381.574219 L 358.753906 387.449219 L 378.183594 407.203125 L 387.429688 416.59375 L 387.464844 416.59375 L 396.425781 425.699219 L 396.425781 538.507812 L 366.640625 500.332031 L 366.171875 437.742188 L 337.246094 409.136719 L 337.246094 461.796875 L 307.3125 423.726562 L 307.3125 330.992188 C 307.3125 330.492188 307.3125 330.023438 307.421875 329.558594 C 307.492188 326.796875 308.101562 324.179688 309.070312 321.707031 C 312.332031 313.140625 320.003906 306.796875 329.324219 305.398438 C 330.578125 305.183594 331.867188 305.074219 333.15625 305.074219 L 337.246094 305.074219 L 337.246094 366.230469 L 342.980469 360.566406 L 352.515625 351.136719 L 364.632812 339.164062 L 366.496094 337.300781 L 366.496094 304.660156 " fill-opacity="1" fill-rule="nonzero"/><path fill="#d33200" d="M 502.964844 331.601562 L 502.964844 370.855469 L 501.960938 371.859375 L 472.53125 371.859375 L 472.53125 333.5 L 442.742188 333.5 L 442.742188 451.222656 L 454.355469 437.351562 L 491.707031 437.351562 L 412.34375 540.480469 L 412.34375 303.101562 L 474.464844 303.101562 C 480.164062 303.101562 485.433594 304.789062 489.878906 307.621094 C 491.636719 308.800781 493.285156 310.128906 494.71875 311.597656 C 497.445312 314.324219 499.59375 317.621094 500.992188 321.277344 L 500.992188 322.496094 L 501.171875 321.816406 C 502.320312 324.863281 502.964844 328.195312 502.964844 331.601562 " fill-opacity="1" fill-rule="nonzero"/><path fill="#333333" d="M 297.441406 250.433594 C 294.386719 251.898438 291.390625 253.367188 288.394531 254.894531 C 292.429688 244.382812 302.148438 236.496094 313.089844 233.867188 C 313.761719 233.683594 315.351562 233.011719 315.230469 234.296875 C 307.832031 237.046875 301.292969 243.160156 297.441406 250.433594 " fill-opacity="1" fill-rule="nonzero"/><path fill="#333333" d="M 332.710938 226.414062 C 331.792969 226.414062 330.875 226.472656 330.019531 226.535156 C 326.230469 226.839844 322.503906 227.636719 318.898438 228.917969 L 317.246094 227.390625 L 314.558594 227.390625 C 313.273438 227.390625 312.171875 227.757812 311.683594 227.941406 C 296.648438 231.484375 284.421875 243.464844 281.121094 257.644531 C 281.0625 258.011719 280.9375 258.378906 280.878906 258.746094 C 279.105469 259.664062 277.332031 260.582031 275.621094 261.496094 C 272.382812 263.207031 254.59375 272.804688 253.492188 274.273438 C 252.027344 276.289062 252.515625 288.390625 252.640625 291.8125 C 253.3125 314.855469 256.429688 338.695312 261.378906 361.128906 C 272.136719 409.78125 294.507812 454.402344 327.027344 491.929688 C 327.210938 492.542969 326.167969 492.605469 325.679688 492.421875 C 323.726562 491.503906 314.558594 483.800781 312.355469 481.847656 C 250.867188 428.609375 223.726562 341.628906 218.714844 262.414062 L 219.511719 260.519531 C 260.097656 231.117188 308.75 209.480469 356.609375 194.691406 C 360.15625 193.589844 364.859375 192.121094 370.054688 190.53125 C 371.15625 191.695312 372.378906 192.792969 373.539062 193.773438 L 367.0625 205.445312 C 366.023438 207.402344 364.800781 208.992188 363.515625 210.152344 C 359.359375 214.066406 353.550781 216.203125 347.378906 218.464844 C 344.628906 219.503906 341.816406 220.484375 339.1875 221.707031 L 338.636719 221.949219 C 336.988281 222.5625 334.175781 223.664062 332.710938 226.414062 " fill-opacity="1" fill-rule="nonzero"/><path fill="#333333" d="M 336.378906 232.707031 C 337.292969 232.769531 338.152344 232.890625 339.066406 233.074219 C 337.355469 233.6875 335.703125 234.359375 333.996094 234.96875 L 333.933594 234.96875 C 322.871094 239.1875 311.929688 243.769531 301.230469 248.660156 C 308.503906 239.738281 319.261719 233.503906 330.507812 232.648438 C 332.464844 232.464844 334.421875 232.464844 336.378906 232.707031 " fill-opacity="1" fill-rule="nonzero"/><path fill="#333333" d="M 377.515625 220.421875 C 367.855469 223.234375 358.261719 226.230469 348.785156 229.589844 C 346.464844 228.550781 344.140625 227.816406 341.695312 227.269531 C 350.3125 223.417969 360.519531 221.277344 367.671875 214.675781 C 369.628906 212.84375 371.15625 210.703125 372.441406 208.378906 C 373.296875 212.171875 374.761719 215.898438 377.207031 219.8125 C 377.269531 219.996094 377.390625 220.238281 377.515625 220.421875 " fill-opacity="1" fill-rule="nonzero"/><path fill="#333333" d="M 491.507812 238.210938 C 483.378906 234.96875 475.1875 231.851562 466.9375 229.042969 C 466.140625 228.675781 465.285156 228.429688 464.492188 228.183594 C 460.519531 226.777344 456.605469 225.496094 452.574219 224.273438 C 453.429688 223.84375 454.40625 223.539062 455.566406 223.171875 C 459.664062 221.828125 474.089844 218.34375 477.390625 219.445312 C 481.363281 220.605469 489.246094 233.929688 491.507812 238.210938 " fill-opacity="1" fill-rule="nonzero"/><path fill="#d33200" d="M 596.945312 281.667969 C 590.222656 355.871094 555.6875 448.289062 492.179688 491.808594 C 491.324219 492.421875 488.511719 494.925781 487.71875 494.253906 C 516.691406 463.019531 537.65625 424.941406 550.003906 384.171875 C 551.226562 380.199219 552.324219 376.164062 553.363281 372.191406 L 553.363281 372.128906 C 554.039062 369.683594 554.648438 367.238281 555.199219 364.796875 C 561.25 338.632812 563.574219 314 563.941406 287.230469 C 564 283.074219 566.203125 278.304688 563.328125 273.78125 C 542.851562 261.679688 521.640625 250.921875 499.820312 241.632812 C 499.757812 241.511719 499.699219 241.386719 499.636719 241.265625 C 499.027344 239.796875 498.355469 238.332031 497.621094 236.863281 L 497.621094 236.679688 L 496.886719 235.335938 C 493.769531 229.46875 485.824219 215.53125 479.34375 213.636719 C 478.246094 213.269531 477.023438 213.148438 475.554688 213.148438 C 469.320312 213.148438 457.21875 216.203125 453.613281 217.367188 C 452.144531 217.855469 450.921875 218.285156 449.945312 218.773438 C 449.148438 219.136719 448.417969 219.503906 447.804688 219.992188 C 447.316406 220.359375 446.890625 220.726562 446.460938 221.09375 C 446.15625 221.398438 445.847656 221.765625 445.605469 222.074219 C 445.484375 222.011719 445.300781 222.011719 445.175781 221.949219 C 448.964844 215.714844 451.960938 209.359375 453.246094 205.019531 C 454.285156 201.65625 454.835938 198.234375 455.324219 194.933594 C 455.445312 194.261719 455.507812 193.652344 455.628906 193.039062 C 457.585938 193.652344 459.296875 194.199219 460.886719 194.691406 C 499.332031 206.609375 542.605469 224.640625 576.714844 245.972656 C 580.503906 248.355469 594.867188 257.15625 596.945312 259.664062 C 599.023438 262.167969 597.375 277.390625 596.945312 281.667969 " fill-opacity="1" fill-rule="nonzero"/><path fill="#000000" d="M 219.617188 332.648438 L 230.609375 368.929688 C 259.390625 456.003906 326.703125 522.257812 408.445312 561.035156 C 502.703125 517.53125 575.628906 435.25 596.976562 332.195312 C 598.199219 330.683594 597.96875 333.3125 597.929688 334.046875 C 597.527344 341.511719 596.171875 350.296875 594.980469 357.742188 C 579.675781 453.597656 527.214844 526.109375 445.398438 576.339844 C 440.480469 579.359375 411.601562 596.355469 408.359375 596.144531 C 405.953125 595.988281 392.140625 588.027344 388.847656 586.214844 C 292.714844 533.226562 226.546875 444.703125 219.617188 332.648438 " fill-opacity="1" fill-rule="nonzero"/><path fill="#000000" d="M 432.503906 706.933594 L 447.828125 706.933594 C 448.15625 706.933594 451.183594 704.890625 451.289062 704.453125 L 449.804688 701.992188 L 433.984375 701.992188 Z M 461.671875 678.261719 C 469.261719 679.605469 468.945312 686.054688 466.324219 691.808594 C 465.632812 693.328125 463.496094 694.722656 463.300781 695.710938 C 463.058594 696.953125 465.144531 699.113281 465.179688 701.476562 C 465.238281 705.515625 460.175781 715.832031 455.738281 715.832031 L 416.683594 715.832031 L 422.550781 692.539062 C 423.179688 692.089844 435.871094 692.003906 437.976562 692.039062 C 443.003906 692.117188 453.058594 696.191406 453.265625 688.148438 L 434.480469 688.148438 C 434.398438 688.148438 434.640625 686.949219 434.136719 686.550781 C 431.0625 684.132812 426.992188 682.011719 425.582031 678.261719 C 436.339844 679.601562 451.480469 676.457031 461.671875 678.261719 " fill-opacity="1" fill-rule="nonzero"/><path fill="#000000" d="M 569.871094 625.828125 C 570 629.933594 570.4375 634.15625 567.050781 637.105469 L 536.039062 637.105469 C 535.371094 647.40625 555.984375 638.105469 559.238281 642.667969 C 560.425781 644.652344 559.148438 651.292969 557.507812 652.375 L 533.148438 653.953125 L 532.667969 659.660156 C 533.0625 660.222656 534.105469 658.535156 534.347656 658.535156 L 561.976562 658.535156 L 559.722656 668.683594 L 514.609375 668.683594 C 518.046875 654.359375 520.738281 639.257812 526.453125 625.828125 Z M 569.871094 625.828125 " fill-opacity="1" fill-rule="nonzero"/><path fill="#000000" d="M 270.636719 687.8125 C 273.894531 694.457031 267.941406 700.730469 268.667969 707.589844 C 273.3125 705.308594 278.90625 707.511719 283.769531 706.390625 C 287.550781 705.519531 285.949219 702.6875 294.070312 702.085938 C 297.0625 701.863281 301.550781 700.9375 300.867188 704.664062 C 300.019531 709.289062 296.492188 714.292969 291.667969 715.273438 C 288.121094 715.988281 260.230469 715.988281 257.804688 714.980469 C 254.75 713.710938 254.570312 709.925781 254.792969 707.101562 C 255.078125 703.472656 258.566406 690.042969 260.058594 686.628906 C 262.402344 681.28125 266.308594 678.546875 272.117188 677.921875 C 277.566406 677.335938 295.476562 677.183594 300.363281 678.355469 C 307.773438 680.128906 306.351562 685.996094 304.121094 691.640625 L 292.003906 691.832031 L 289.914062 687.8125 Z M 270.636719 687.8125 " fill-opacity="1" fill-rule="nonzero"/><path fill="#000000" d="M 346.800781 657.851562 C 350.871094 656.679688 354.914062 632.171875 356.921875 627.371094 L 372.171875 626.28125 C 369.164062 634.628906 366.191406 659.0625 360.359375 664.644531 C 354.21875 670.519531 333.058594 667.660156 324.441406 667.292969 C 318.746094 667.046875 312.359375 670.542969 311.667969 660.875 L 320.988281 626.203125 L 334.960938 626.277344 L 328.195312 657.851562 Z M 346.800781 657.851562 " fill-opacity="1" fill-rule="nonzero"/><path fill="#000000" d="M 447.140625 625.625 L 435.882812 667.9375 L 422.324219 668.484375 C 421.734375 662.496094 425 657.050781 426.046875 651.265625 C 426.394531 649.351562 427.554688 648.71875 425.140625 647.058594 L 411.597656 663.960938 L 408.804688 661.71875 C 411.054688 671.257812 399.535156 669.09375 393.5 667.425781 L 388.480469 647.0625 C 386.925781 646.875 386.578125 649.761719 386.207031 650.960938 C 385.25 654.058594 382.945312 666.109375 381.28125 667.46875 C 379.300781 669.089844 368.078125 669.507812 367.15625 666.636719 L 377.265625 625.675781 L 398.691406 626.144531 L 405.976562 652.703125 C 406.835938 649.5 408.28125 647.148438 410.121094 644.429688 C 412.648438 640.6875 419.6875 630.246094 422.285156 627.597656 C 423.140625 626.722656 424.03125 626.121094 425.148438 625.625 Z M 447.140625 625.625 " fill-opacity="1" fill-rule="nonzero"/><path fill="#000000" d="M 422.792969 677.664062 L 412.925781 714.757812 L 401.039062 715.238281 C 400.523438 709.988281 403.382812 705.214844 404.304688 700.144531 C 404.609375 698.464844 405.625 697.90625 403.507812 696.453125 L 391.636719 711.269531 L 389.1875 709.308594 C 391.160156 717.667969 381.058594 715.773438 375.765625 714.308594 L 371.367188 696.457031 C 370.003906 696.292969 369.699219 698.820312 369.375 699.875 C 368.535156 702.59375 366.511719 713.15625 365.054688 714.347656 C 363.320312 715.769531 353.480469 716.132812 352.667969 713.621094 L 361.535156 677.707031 L 380.316406 678.117188 L 386.707031 701.402344 C 387.460938 698.59375 388.726562 696.535156 390.339844 694.148438 C 392.558594 690.867188 398.726562 681.714844 401.007812 679.390625 C 401.757812 678.625 402.535156 678.097656 403.515625 677.664062 Z M 422.792969 677.664062 " fill-opacity="1" fill-rule="nonzero"/><path fill="#000000" d="M 513.679688 715.308594 L 487.972656 715.308594 L 497.917969 709.761719 C 498.425781 702.074219 494.699219 695.035156 493.410156 687.613281 C 492.539062 687.609375 493.230469 692.722656 492.402344 694.527344 C 491.351562 696.824219 480.5 710.082031 478.074219 712.875 C 477.476562 713.566406 477.148438 714.394531 477.097656 715.308594 L 463.253906 715.308594 L 488.933594 681.167969 L 490.933594 680.707031 L 492.910156 685.640625 L 492.339844 678.660156 L 503.808594 678.210938 Z M 513.679688 715.308594 " fill-opacity="1" fill-rule="nonzero"/><path fill="#000000" d="M 286.328125 625.800781 C 287.703125 627.191406 283.300781 639.511719 286.886719 639.316406 C 294.960938 629.035156 304.238281 623.5 317.894531 625.8125 C 318.480469 628.042969 316.964844 627.992188 316 628.980469 C 312.929688 632.117188 299.183594 643.070312 295.5625 644.671875 C 294.542969 645.121094 293.097656 644.960938 291.957031 644.984375 L 306.597656 666.976562 C 292.527344 674.347656 288.40625 661.972656 281.25 652.894531 L 275.058594 668.109375 L 262.585938 668.148438 L 261.722656 665.027344 L 272.207031 626.914062 Z M 286.328125 625.800781 " fill-opacity="1" fill-rule="nonzero"/><path fill="#000000" d="M 520.894531 626.394531 L 518.636719 637.671875 L 498.902344 637.671875 C 498.71875 637.671875 495.605469 638.78125 496.089844 639.914062 L 500.140625 640.96875 L 493.679688 667.976562 L 479.164062 668.117188 L 485.980469 640.496094 C 485.597656 635.40625 473.75 638.476562 470.148438 637.667969 L 474.09375 626.394531 Z M 520.894531 626.394531 " fill-opacity="1" fill-rule="nonzero"/><path fill="#000000" d="M 559.566406 678.472656 L 557.589844 688.359375 L 540.289062 688.359375 C 540.125 688.359375 537.398438 689.328125 537.820312 690.324219 L 541.371094 691.246094 L 535.710938 714.925781 L 522.984375 715.050781 L 528.957031 690.832031 C 528.621094 686.371094 518.234375 689.0625 515.078125 688.351562 L 518.535156 678.472656 Z M 559.566406 678.472656 " fill-opacity="1" fill-rule="nonzero"/><path fill="#000000" d="M 466.964844 625.828125 L 456.660156 668.542969 L 442.144531 668.683594 L 453.308594 626.53125 Z M 466.964844 625.828125 " fill-opacity="1" fill-rule="nonzero"/><path fill="#000000" d="M 319.425781 705.660156 C 323.953125 705.039062 329.574219 706.109375 334.257812 705.660156 C 336.898438 705.660156 339.945312 691.234375 339.769531 688.453125 C 339.199219 686.285156 320.898438 686.335938 317.949219 687.875 L 320.96875 691.308594 L 317.953125 706.648438 C 318.3125 707.148438 319.148438 705.699219 319.425781 705.660156 M 318.699219 678.234375 C 324.871094 677.273438 340.789062 677.273438 347.109375 677.976562 C 358.511719 679.238281 354.167969 687.066406 352.269531 694.996094 C 351.183594 699.519531 348.664062 709.949219 345.152344 712.601562 C 338.628906 717.53125 323.355469 715.363281 315.308594 714.925781 C 311.226562 714.703125 304.511719 716.984375 303.269531 709.875 C 302.871094 707.597656 308.144531 687.683594 309.527344 684.886719 C 311.621094 680.652344 314.070312 678.957031 318.699219 678.234375 " fill-opacity="1" fill-rule="nonzero"/></svg>