<svg xmlns="http://www.w3.org/2000/svg" xmlns:xlink="http://www.w3.org/1999/xlink" width="1080" zoomAndPan="magnify" viewBox="0 0 810 809.999993" height="1080" preserveAspectRatio="xMidYMid meet" version="1.0"><defs><clipPath id="f6de29d915"><path d="M 94.214844 18.339844 L 728.714844 18.339844 L 728.714844 791.589844 L 94.214844 791.589844 Z M 94.214844 18.339844 " clip-rule="nonzero"/></clipPath></defs><g clip-path="url(#f6de29d915)"><rect x="-81" width="972" fill="#ffffff" y="-80.999999" height="971.999992" fill-opacity="1"/></g><path fill="#ffffff" d="M 412.097656 271.246094 L 382.6875 253.652344 C 382.402344 255.828125 384.386719 257.058594 385.902344 258.191406 C 394.226562 265.191406 421.367188 273.417969 408.125 286.566406 C 407.75 286.945312 407.371094 287.324219 406.898438 287.699219 L 378.527344 267.082031 C 378.144531 269.730469 379.566406 270.769531 381.078125 272.285156 C 386.753906 278.148438 402.359375 284.011719 404.816406 291.484375 C 405.953125 294.605469 404.628906 298.101562 399.140625 301.886719 C 399.140625 301.980469 399.140625 301.980469 399.046875 302.078125 C 398.953125 302.078125 398.953125 302.167969 398.859375 302.167969 L 372.378906 283.632812 C 371.335938 284.675781 375.121094 288.078125 376.066406 288.835938 C 379.753906 292.050781 392.144531 298.574219 394.035156 301.792969 C 394.792969 303.117188 395.074219 304.628906 394.886719 306.046875 C 394.128906 306.710938 393.46875 307.371094 392.710938 308.035156 C 393.46875 307.464844 394.226562 306.804688 394.886719 306.144531 C 394.507812 309.734375 391.578125 313.328125 387.890625 315.882812 C 381.550781 320.042969 372.945312 320.992188 371.335938 312.574219 C 373.609375 312.289062 374.457031 314.558594 376.445312 315.128906 C 379.28125 316.074219 384.957031 316.261719 383.632812 312.195312 C 382.96875 310.113281 367.082031 304.34375 365.09375 300.183594 L 367.175781 307.371094 L 364.339844 307.65625 C 360.933594 317.585938 349.207031 327.328125 337.953125 324.679688 C 335.589844 324.207031 334.546875 321.84375 332.089844 321.9375 L 311.472656 322.125 L 303.242188 322.125 C 304.28125 321.179688 305.324219 320.140625 306.269531 319.195312 C 307.5 317.871094 308.824219 316.546875 310.242188 315.316406 L 313.550781 312.480469 L 313.550781 310.679688 L 316.957031 308.316406 C 330.199219 299.046875 339.183594 286.28125 347.789062 273.890625 C 353.273438 266.042969 358.476562 258.667969 364.90625 251.949219 C 366.039062 250.628906 367.269531 249.492188 368.59375 248.261719 L 372.378906 244.761719 L 414.367188 264.433594 C 414.464844 264.527344 414.464844 264.527344 414.558594 264.625 C 414.839844 266.703125 414.179688 268.976562 412.097656 271.246094 " fill-opacity="1" fill-rule="nonzero"/><path fill="#ffffff" d="M 414.371094 264.433594 L 372.378906 244.761719 C 372.753906 244.574219 373.132812 244.386719 373.417969 244.195312 C 374.929688 243.34375 375.308594 243.15625 376.347656 243.15625 C 377.105469 243.15625 378.523438 243.34375 380.984375 244.195312 C 387.984375 246.75 394.792969 250.058594 401.035156 254.125 C 402.074219 254.695312 403.019531 255.355469 403.964844 256.113281 C 405.386719 257.058594 406.707031 258.003906 408.03125 259.042969 C 409.074219 259.800781 410.019531 260.558594 410.871094 261.410156 C 412.101562 262.257812 413.328125 263.296875 414.371094 264.433594 " fill-opacity="1" fill-rule="nonzero"/><path fill="#ffffff" d="M 394.886719 306.046875 L 394.886719 306.144531 C 394.226562 306.804688 393.46875 307.464844 392.710938 308.035156 C 393.46875 307.371094 394.128906 306.710938 394.886719 306.046875 " fill-opacity="1" fill-rule="nonzero"/><path fill="#ffffff" d="M 414.558594 264.527344 L 414.558594 264.625 C 414.464844 264.527344 414.464844 264.527344 414.371094 264.4375 Z M 414.558594 264.527344 " fill-opacity="1" fill-rule="nonzero"/><path fill="#ffffff" d="M 251.492188 343.378906 C 249.789062 345.648438 248.371094 348.105469 247.234375 350.660156 L 247.140625 350.660156 C 246.480469 351.984375 245.914062 353.308594 245.34375 354.726562 C 243.453125 359.929688 242.320312 365.035156 242.035156 370.238281 C 241.847656 371.65625 241.847656 372.789062 241.847656 373.640625 L 241.847656 380.167969 C 234.089844 387.449219 227.46875 396.625 223.308594 406.269531 L 241.847656 385.085938 L 241.847656 468.121094 C 235.699219 469.636719 229.644531 470.109375 224.632812 468.40625 C 221.984375 467.554688 201.558594 450.910156 200.042969 448.261719 C 199.003906 446.652344 198.054688 444.855469 197.773438 443.0625 C 196.921875 416.671875 192.855469 398.515625 203.921875 380.355469 C 207.136719 374.964844 211.582031 369.667969 217.917969 364.089844 C 228.039062 355.199219 239.574219 349.050781 251.492188 343.378906 " fill-opacity="1" fill-rule="nonzero"/><path fill="#ffffff" d="M 422.011719 282.378906 C 422.011719 276.515625 421.160156 271.691406 422.011719 265.824219 C 422.199219 264.40625 420.96875 262.800781 423.523438 263.175781 C 431.847656 267.054688 428.914062 278.59375 422.011719 282.378906 " fill-opacity="1" fill-rule="nonzero"/><path fill="#ffffff" d="M 217.917969 364.089844 C 228.039062 355.199219 239.574219 349.050781 251.492188 343.378906 C 249.789062 345.648438 248.371094 348.105469 247.238281 350.660156 L 247.140625 350.660156 C 243.265625 352.269531 239.480469 353.96875 235.886719 355.957031 C 227.941406 360.117188 221.984375 364.847656 216.972656 370.898438 C 216.027344 373.261719 214.039062 377.710938 208.648438 379.128906 L 203.921875 380.355469 C 207.136719 374.964844 211.582031 369.667969 217.917969 364.089844 " fill-opacity="1" fill-rule="nonzero"/><path fill="#ffffff" d="M 362.164062 241.359375 C 360.648438 242.777344 359.136719 244.195312 357.8125 245.707031 C 341.167969 263.113281 331.332031 286.753906 311.566406 300.5625 C 295.300781 289.96875 279.128906 288.550781 260.683594 294.226562 C 260.496094 296.210938 262.953125 295.078125 264.183594 294.886719 C 279.503906 293.46875 292.554688 294.699219 304.09375 305.953125 L 304.09375 308.128906 C 300.972656 310.777344 298.421875 313.898438 295.394531 316.546875 C 293.40625 318.34375 291.328125 319.949219 289.152344 321.464844 C 288.113281 321.464844 287.355469 321.652344 286.410156 321.839844 C 275.058594 323.542969 264.75 328.933594 256.902344 336.972656 L 256.808594 336.972656 C 248.105469 340.1875 239.40625 343.308594 231.367188 347.660156 C 223.234375 351.917969 215.761719 357.402344 209.425781 365.253906 C 208.007812 366.859375 208.007812 369.507812 206.210938 369.980469 C 200.914062 343.027344 210.371094 319.382812 229.664062 301.128906 L 224.460938 302.644531 C 222.382812 288.550781 219.355469 273.988281 222.570312 259.800781 C 223.042969 257.625 223.707031 255.542969 224.558594 253.464844 C 230.796875 237.195312 245.835938 224.996094 262.765625 220.929688 C 263.804688 220.648438 266.265625 219.605469 266.074219 221.59375 C 254.632812 225.847656 244.511719 235.304688 238.554688 246.558594 C 240.445312 245.707031 242.335938 244.859375 244.230469 243.910156 L 244.320312 243.816406 L 244.417969 243.816406 C 255.671875 230.011719 272.316406 220.363281 289.71875 219.039062 C 292.746094 218.753906 295.773438 218.753906 298.796875 219.132812 C 300.21875 219.226562 301.542969 219.417969 302.957031 219.703125 L 303.054688 219.703125 C 304.09375 219.890625 305.230469 220.078125 306.269531 220.363281 C 309.675781 221.121094 313.078125 222.347656 316.484375 223.957031 C 323.292969 227.265625 327.171875 231.710938 331.050781 236.914062 C 327.644531 235.210938 324.617188 233.035156 321.96875 231.050781 C 324.617188 233.128906 327.644531 235.304688 331.050781 236.914062 L 331.238281 237.101562 L 331.332031 237.101562 C 331.996094 237.292969 332.46875 237.667969 333.222656 237.953125 C 333.507812 238.046875 333.789062 238.140625 334.074219 238.332031 L 332.277344 232.183594 C 342.492188 233.792969 353.085938 236.347656 362.164062 241.359375 " fill-opacity="1" fill-rule="nonzero"/><path fill="#ffffff" d="M 331.046875 236.914062 C 327.644531 235.304688 324.617188 233.128906 321.96875 231.050781 C 324.617188 233.035156 327.644531 235.210938 331.046875 236.914062 " fill-opacity="1" fill-rule="nonzero"/><path fill="#ffffff" d="M 331.144531 236.914062 L 331.144531 237.007812 L 331.046875 236.914062 Z M 331.144531 236.914062 " fill-opacity="1" fill-rule="nonzero"/><path fill="#ffffff" d="M 331.046875 236.914062 C 327.644531 235.304688 324.617188 233.128906 321.96875 231.050781 C 324.617188 233.035156 327.644531 235.210938 331.046875 236.914062 " fill-opacity="1" fill-rule="nonzero"/><path fill="#ffffff" d="M 331.144531 236.914062 L 331.144531 237.007812 L 331.046875 236.914062 Z M 331.144531 236.914062 " fill-opacity="1" fill-rule="nonzero"/><path fill="#ffffff" d="M 331.046875 236.914062 C 327.644531 235.304688 324.617188 233.128906 321.96875 231.050781 C 324.617188 233.035156 327.644531 235.210938 331.046875 236.914062 " fill-opacity="1" fill-rule="nonzero"/><path fill="#ffffff" d="M 394.886719 306.046875 L 394.886719 306.144531 C 394.226562 306.804688 393.46875 307.464844 392.710938 308.035156 C 393.46875 307.371094 394.128906 306.710938 394.886719 306.046875 " fill-opacity="1" fill-rule="nonzero"/><path fill="#ffffff" d="M 414.558594 264.527344 L 414.558594 264.625 C 414.464844 264.527344 414.464844 264.527344 414.371094 264.4375 Z M 414.558594 264.527344 " fill-opacity="1" fill-rule="nonzero"/><path fill="#ffffff" d="M 422.011719 282.378906 C 422.011719 276.515625 421.160156 271.691406 422.011719 265.824219 C 422.199219 264.40625 420.96875 262.800781 423.523438 263.175781 C 431.847656 267.054688 428.914062 278.59375 422.011719 282.378906 " fill-opacity="1" fill-rule="nonzero"/><path fill="#ffffff" d="M 473.175781 218.824219 L 473.175781 240.953125 C 472.515625 240.480469 471.851562 239.820312 471.191406 239.0625 C 470.714844 238.398438 470.242188 237.738281 469.769531 236.886719 C 468.542969 234.710938 467.597656 231.875 467.21875 228.089844 C 466.933594 226.011719 467.027344 224.121094 467.40625 222.511719 C 467.121094 222.039062 466.839844 221.472656 466.554688 220.714844 C 466.367188 220.429688 466.273438 220.050781 466.082031 219.671875 C 467.597656 218.917969 469.296875 218.253906 471 217.6875 Z M 473.175781 218.824219 " fill-opacity="1" fill-rule="nonzero"/><path fill="#ffffff" d="M 472.890625 244.832031 C 472.796875 244.832031 472.796875 244.832031 472.796875 244.734375 C 473.082031 244.640625 473.363281 244.546875 473.742188 244.453125 C 473.742188 244.359375 473.742188 244.167969 473.648438 244.074219 C 478.851562 245.113281 474.121094 245.207031 472.890625 244.832031 " fill-opacity="1" fill-rule="nonzero"/><path fill="#ffffff" d="M 508.472656 208.730469 C 506.957031 210.90625 504.214844 212.324219 500.8125 213.457031 C 499.582031 212.890625 498.257812 212.511719 497.027344 212.136719 Z M 508.472656 208.730469 " fill-opacity="1" fill-rule="nonzero"/><path fill="#ffffff" d="M 422.011719 265.828125 C 422.199219 264.40625 420.96875 262.800781 423.523438 263.179688 C 431.847656 267.054688 428.914062 278.59375 422.011719 282.378906 C 422.011719 276.511719 421.160156 271.691406 422.011719 265.828125 " fill-opacity="1" fill-rule="nonzero"/><path fill="#ffffff" d="M 466.554688 220.714844 C 466.367188 220.429688 466.269531 220.050781 466.082031 219.671875 C 467.597656 218.917969 469.300781 218.253906 471 217.6875 L 473.175781 218.824219 L 473.175781 240.953125 C 472.511719 240.480469 471.851562 239.816406 471.191406 239.0625 C 470.71875 238.398438 470.246094 237.738281 469.773438 236.886719 C 468.542969 234.710938 467.597656 231.875 467.21875 228.089844 C 466.933594 226.011719 467.027344 224.117188 467.40625 222.511719 C 467.125 222.039062 466.839844 221.472656 466.554688 220.714844 " fill-opacity="1" fill-rule="nonzero"/><path fill="#ffffff" d="M 472.796875 244.738281 C 473.082031 244.640625 473.367188 244.546875 473.742188 244.453125 C 473.742188 244.355469 473.742188 244.167969 473.648438 244.074219 C 478.851562 245.113281 474.121094 245.210938 472.894531 244.832031 C 472.796875 244.832031 472.796875 244.832031 472.796875 244.738281 " fill-opacity="1" fill-rule="nonzero"/><path fill="#ffffff" d="M 331.144531 236.914062 L 331.144531 237.007812 L 331.046875 236.914062 Z M 331.144531 236.914062 " fill-opacity="1" fill-rule="nonzero"/><path fill="#ffffff" d="M 508.472656 208.730469 C 506.957031 210.90625 504.214844 212.324219 500.8125 213.457031 C 499.582031 212.890625 498.257812 212.511719 497.027344 212.136719 Z M 508.472656 208.730469 " fill-opacity="1" fill-rule="nonzero"/><path fill="#ffffff" d="M 614.960938 409.324219 C 612.21875 411.972656 605.882812 410.554688 604.84375 406.675781 C 605.597656 394.382812 606.734375 383.316406 603.804688 371.210938 C 600.113281 355.417969 591.414062 341.132812 585.359375 326.191406 C 597.84375 343.78125 611.273438 365.25 614.960938 386.8125 C 615.71875 391.164062 617.707031 406.582031 614.960938 409.324219 M 623.757812 423.984375 C 623.378906 410.933594 624.417969 399.109375 622.625 385.585938 C 616.570312 342.554688 574.769531 303.589844 555.191406 266.136719 C 549.140625 254.316406 545.355469 240.222656 538.925781 227.929688 C 538.925781 227.835938 538.832031 227.738281 538.832031 227.644531 C 535.328125 221.023438 523.132812 200.40625 516.980469 198.609375 C 511.875 196.910156 489.558594 202.300781 483.21875 204.378906 C 481.421875 204.945312 479.910156 205.421875 478.585938 206.082031 C 473.855469 208.351562 472.34375 211.472656 475.9375 218.375 L 497.027344 212.136719 L 508.472656 208.730469 C 506.957031 210.90625 504.214844 212.324219 500.808594 213.457031 C 490.691406 216.863281 475.558594 217.433594 476.601562 227.078125 C 478.019531 239.65625 484.734375 231.710938 491.070312 229.347656 C 498.066406 226.699219 505.730469 225.28125 512.726562 222.632812 C 514.714844 224.335938 507.148438 227.078125 506.296875 227.457031 C 491.730469 233.320312 474.046875 230.859375 487.664062 252.425781 L 493.625 246.75 L 516.980469 237.671875 C 517.363281 240.222656 517.078125 239.84375 515.660156 241.167969 C 510.644531 245.613281 492.203125 248.734375 491.351562 254.21875 C 490.785156 257.910156 494.378906 265.191406 497.214844 267.554688 C 500.621094 270.390625 511.496094 272.285156 512.726562 266.421875 C 507.714844 266.988281 502.417969 268.972656 502.039062 262.164062 C 505.066406 262.070312 509.132812 261.785156 511.875 260.746094 C 514.617188 259.800781 516.226562 256.964844 519.15625 256.867188 L 516.980469 260.558594 L 522.375 262.164062 C 517.644531 276.539062 529.371094 291.105469 544.691406 286.753906 C 535.046875 296.210938 522.941406 292.144531 516.792969 280.984375 C 515.5625 278.90625 515.1875 273.796875 513.292969 272.851562 C 509.417969 270.867188 513.105469 281.648438 510.644531 281.363281 C 509.511719 273.324219 504.972656 275.878906 499.863281 274.554688 C 490.03125 271.8125 487.476562 259.515625 481.042969 252.707031 C 475.9375 253.9375 470.734375 252.992188 471.019531 259.988281 C 460.144531 249.398438 443.875 251.570312 430.449219 255.734375 C 430.824219 246.558594 444.445312 251.667969 449.742188 247.789062 C 446.335938 245.140625 442.457031 242.304688 439.90625 238.804688 C 435.175781 240.695312 430.257812 241.640625 424.960938 241.640625 C 400.277344 241.640625 378.523438 219.984375 367.742188 207.027344 C 365.757812 204.664062 364.054688 202.394531 362.539062 200.125 C 362.351562 199.839844 362.164062 199.460938 361.972656 199.179688 C 358.191406 193.125 355.921875 187.355469 354.597656 181.492188 C 352.609375 185.085938 350.246094 188.394531 347.222656 191.234375 C 336.15625 201.449219 320.363281 204.757812 307.027344 210.714844 C 310.808594 211.566406 314.402344 212.703125 317.996094 214.3125 C 316.199219 214.878906 314.496094 215.445312 312.703125 216.105469 C 314.78125 216.578125 316.671875 217.148438 318.375 217.808594 C 324.710938 220.363281 330.292969 226.511719 336.910156 229.253906 C 341.546875 231.238281 359.515625 236.722656 364.054688 237.386719 C 366.324219 237.765625 368.027344 236.25 370.484375 235.117188 C 373.324219 233.699219 377.105469 232.65625 384.199219 235.304688 C 398.574219 240.507812 411.816406 248.734375 422.503906 258.949219 C 425.433594 261.785156 429.5 260.9375 430.449219 266.988281 C 431.488281 273.703125 426.191406 286.472656 421.367188 290.914062 C 418.53125 293.375 416.070312 292.429688 414.746094 293.375 C 413.992188 293.847656 408.316406 305.859375 405.953125 308.601562 C 404.25 310.492188 395.546875 318.4375 393.65625 319.855469 C 392.898438 320.421875 392.144531 320.800781 391.386719 321.179688 L 405.953125 321.179688 L 408.410156 318.058594 L 506.863281 318.058594 C 507.335938 309.546875 507.148438 301.226562 505.066406 296.023438 C 500.335938 284.671875 489.652344 280.605469 480.289062 274.839844 C 479.246094 274.082031 476.976562 272.566406 480.097656 272.851562 C 497.5 279.472656 515.28125 287.417969 514.902344 309.074219 C 521.332031 308.222656 531.546875 302.738281 533.0625 312.289062 C 525.871094 311.535156 518.496094 313.519531 513.011719 318.058594 L 518.308594 318.058594 C 526.535156 318.058594 534.574219 319.855469 541.953125 323.167969 C 541.003906 315.03125 539.019531 307.183594 535.140625 299.523438 C 541.480469 302.171875 546.394531 298.007812 552.257812 296.308594 C 552.164062 299.617188 548.570312 300.65625 547.152344 303.589844 C 544.976562 308.128906 547.71875 319.003906 549.234375 327.234375 C 551.785156 328.933594 554.058594 330.636719 555.949219 332.433594 L 558.785156 321.652344 L 570.324219 352.578125 C 570.605469 353.144531 571.742188 356.171875 571.742188 356.171875 L 571.742188 356.359375 C 573.824219 362.226562 574.957031 368.371094 574.957031 374.613281 L 574.957031 417.269531 C 581.671875 422.1875 597.84375 431.550781 596.613281 437.410156 C 595.480469 442.332031 589.898438 441.855469 586.023438 441.480469 C 582.050781 441.101562 578.363281 439.777344 574.957031 437.980469 L 574.957031 441.574219 L 572.402344 444.035156 C 573.824219 444.882812 575.242188 445.734375 576.753906 446.300781 C 585.457031 449.800781 609.097656 452.734375 617.609375 449.800781 C 629.8125 445.640625 623.945312 432.589844 623.757812 423.984375 " fill-opacity="1" fill-rule="nonzero"/><path fill="#ffffff" d="M 472.890625 244.832031 C 472.796875 244.832031 472.796875 244.832031 472.796875 244.734375 L 472.703125 244.734375 C 467.3125 242.75 470.148438 239.441406 468.351562 235.375 C 467.691406 233.859375 464.382812 231.96875 463.054688 229.980469 C 459.652344 224.78125 462.109375 221.753906 466.082031 219.671875 C 467.597656 218.917969 469.296875 218.253906 471 217.6875 L 473.175781 218.824219 L 473.175781 243.980469 C 473.363281 243.980469 473.460938 244.074219 473.648438 244.074219 C 478.851562 245.113281 474.121094 245.207031 472.890625 244.832031 " fill-opacity="1" fill-rule="nonzero"/><path fill="#ffffff" d="M 480.835938 131.058594 C 479.132812 135.972656 477.335938 141.175781 475.917969 146.757812 C 475.257812 149.40625 474.6875 152.148438 474.214844 154.984375 C 473.175781 161.226562 472.324219 167.5625 470.527344 173.523438 C 468.445312 180.425781 463.53125 190.449219 457.664062 199.71875 C 452.085938 208.609375 445.65625 216.835938 440.074219 220.902344 C 418.984375 236.320312 392.976562 212.863281 379.734375 196.976562 C 379.359375 196.503906 378.980469 196.03125 378.601562 195.558594 C 368.859375 183.261719 368.199219 173.140625 368.292969 157.160156 C 366.496094 155.175781 363.847656 153 361.292969 150.824219 C 357.890625 147.796875 354.675781 144.582031 353.347656 141.175781 C 351.835938 137.109375 352.972656 133.515625 352.308594 129.449219 C 352.308594 129.261719 352.214844 129.070312 352.121094 128.882812 C 350.984375 123.394531 346.539062 120.746094 348.808594 113.65625 C 351.269531 105.519531 359.402344 110.628906 363.183594 114.789062 C 362.617188 101.925781 361.199219 90.578125 362.902344 79.988281 C 364.507812 70.527344 368.574219 61.734375 378.128906 53.316406 C 411.230469 24.375 467.125 41.117188 483.578125 80.269531 C 483.957031 81.214844 484.335938 82.160156 484.714844 83.011719 L 484.714844 83.105469 C 491.523438 101.644531 486.320312 115.453125 480.835938 131.058594 " fill-opacity="1" fill-rule="nonzero"/><path fill="#ffffff" d="M 480.835938 131.058594 C 479.132812 135.972656 477.335938 141.175781 475.917969 146.757812 C 475.257812 149.40625 474.6875 152.148438 474.214844 154.984375 C 473.175781 161.226562 472.324219 167.5625 470.527344 173.523438 C 468.445312 180.425781 463.53125 190.449219 457.664062 199.71875 C 452.085938 208.609375 445.65625 216.835938 440.074219 220.902344 C 418.984375 236.320312 392.976562 212.863281 379.734375 196.976562 C 379.359375 196.503906 378.980469 196.03125 378.601562 195.558594 C 368.859375 183.261719 368.199219 173.140625 368.292969 157.160156 C 366.496094 155.175781 363.847656 153 361.292969 150.824219 C 357.890625 147.796875 354.675781 144.582031 353.347656 141.175781 C 351.835938 137.109375 352.972656 133.515625 352.308594 129.449219 C 352.308594 129.261719 352.214844 129.070312 352.121094 128.882812 C 350.984375 123.394531 346.539062 120.746094 348.808594 113.65625 C 351.269531 105.519531 359.402344 110.628906 363.183594 114.789062 C 362.617188 101.925781 361.199219 90.578125 362.902344 79.988281 C 364.507812 70.527344 368.574219 61.734375 378.128906 53.316406 C 411.230469 24.375 467.125 41.117188 483.578125 80.269531 C 483.957031 81.214844 484.335938 82.160156 484.714844 83.011719 L 484.714844 83.105469 C 491.523438 101.644531 486.320312 115.453125 480.835938 131.058594 " fill-opacity="1" fill-rule="nonzero"/><path fill="#ffffff" d="M 480.835938 131.058594 C 479.132812 135.972656 477.335938 141.175781 475.917969 146.757812 C 475.257812 149.40625 474.6875 152.148438 474.214844 154.984375 C 473.175781 161.226562 472.324219 167.5625 470.527344 173.523438 C 468.445312 180.425781 463.53125 190.449219 457.664062 199.71875 C 452.085938 208.609375 445.65625 216.835938 440.074219 220.902344 C 418.984375 236.320312 392.976562 212.863281 379.734375 196.976562 C 379.359375 196.503906 378.980469 196.03125 378.601562 195.558594 C 368.859375 183.261719 368.199219 173.140625 368.292969 157.160156 C 366.496094 155.175781 363.847656 153 361.292969 150.824219 C 357.890625 147.796875 354.675781 144.582031 353.347656 141.175781 C 351.835938 137.109375 352.972656 133.515625 352.308594 129.449219 C 352.308594 129.261719 352.214844 129.070312 352.121094 128.882812 C 350.984375 123.394531 346.539062 120.746094 348.808594 113.65625 C 351.269531 105.519531 359.402344 110.628906 363.183594 114.789062 C 362.617188 101.925781 361.199219 90.578125 362.902344 79.988281 C 364.507812 70.527344 368.574219 61.734375 378.128906 53.316406 C 411.230469 24.375 467.125 41.117188 483.578125 80.269531 C 483.957031 81.214844 484.335938 82.160156 484.714844 83.011719 L 484.714844 83.105469 C 491.523438 101.644531 486.320312 115.453125 480.835938 131.058594 " fill-opacity="1" fill-rule="nonzero"/><path fill="#d33200" d="M 364.738281 331.078125 L 391.695312 331.078125 L 391.695312 400.078125 L 370.5625 421.265625 L 369.175781 422.652344 L 356.863281 435.019531 L 353.476562 438.402344 L 345.769531 446.167969 L 333.398438 458.539062 L 363.460938 489.097656 L 377.773438 503.628906 L 377.828125 503.628906 L 391.695312 517.71875 L 391.695312 692.269531 L 345.601562 633.199219 L 344.882812 536.355469 L 300.121094 492.09375 L 300.121094 573.570312 L 253.808594 514.667969 L 253.808594 371.179688 C 253.808594 370.402344 253.808594 369.683594 253.976562 368.960938 C 254.085938 364.691406 255.027344 360.640625 256.527344 356.8125 C 261.574219 343.558594 273.441406 333.742188 287.863281 331.578125 C 289.804688 331.242188 291.800781 331.078125 293.796875 331.078125 L 300.121094 331.078125 L 300.121094 425.703125 L 308.996094 416.9375 L 323.75 402.351562 L 342.496094 383.824219 L 345.382812 380.941406 L 345.382812 330.4375 Z M 364.738281 331.078125 " fill-opacity="1" fill-rule="nonzero"/><path fill="#d33200" d="M 556.535156 372.121094 L 556.535156 432.859375 L 554.984375 434.410156 L 509.449219 434.410156 L 509.449219 375.0625 L 463.355469 375.0625 L 463.355469 557.210938 L 481.324219 535.746094 L 539.121094 535.746094 L 416.320312 695.320312 L 416.320312 328.027344 L 512.441406 328.027344 C 521.261719 328.027344 529.414062 330.636719 536.292969 335.015625 C 539.011719 336.847656 541.5625 338.898438 543.78125 341.171875 C 547.996094 345.386719 551.324219 350.492188 553.488281 356.148438 L 553.488281 358.035156 L 553.765625 356.980469 C 555.539062 361.695312 556.535156 366.855469 556.535156 372.121094 " fill-opacity="1" fill-rule="nonzero"/><path fill="#ffffff" d="M 293.105469 209.367188 C 291.6875 209.367188 290.269531 209.457031 288.941406 209.554688 C 283.082031 210.027344 277.3125 211.257812 271.730469 213.242188 L 269.175781 210.878906 L 265.015625 210.878906 C 263.03125 210.878906 261.328125 211.445312 260.570312 211.730469 C 237.304688 217.214844 218.390625 235.75 213.285156 257.691406 C 213.1875 258.261719 213 258.828125 212.90625 259.394531 C 210.164062 260.8125 207.421875 262.234375 204.773438 263.652344 C 199.761719 266.300781 172.238281 281.148438 170.535156 283.417969 C 168.265625 286.539062 169.023438 305.261719 169.210938 310.558594 C 170.253906 346.214844 175.074219 383.101562 182.734375 417.808594 C 199.382812 493.089844 233.996094 562.128906 284.308594 620.199219 C 284.59375 621.144531 282.984375 621.238281 282.226562 620.953125 C 279.203125 619.535156 265.015625 607.621094 261.613281 604.59375 C 166.46875 522.21875 124.476562 387.640625 116.722656 265.070312 L 117.953125 262.136719 C 180.75 216.648438 256.03125 183.167969 330.085938 160.28125 C 335.570312 158.578125 342.851562 156.308594 350.890625 153.851562 C 352.59375 155.644531 354.484375 157.347656 356.28125 158.863281 L 346.257812 176.925781 C 344.648438 179.953125 342.757812 182.410156 340.769531 184.207031 C 334.339844 190.261719 325.355469 193.570312 315.800781 197.070312 C 311.546875 198.679688 307.195312 200.191406 303.128906 202.082031 L 302.277344 202.460938 C 299.726562 203.40625 295.375 205.109375 293.105469 209.367188 " fill-opacity="1" fill-rule="nonzero"/><path fill="#d33200" d="M 701.953125 294.859375 C 691.550781 409.675781 638.113281 552.671875 539.851562 620.007812 C 538.527344 620.953125 534.175781 624.832031 532.945312 623.792969 C 577.773438 575.464844 610.214844 516.546875 629.320312 453.460938 C 631.210938 447.316406 632.914062 441.074219 634.519531 434.925781 L 634.519531 434.832031 C 635.5625 431.046875 636.507812 427.265625 637.359375 423.484375 C 646.722656 383.003906 650.316406 344.890625 650.882812 303.46875 C 650.976562 297.035156 654.382812 289.660156 649.9375 282.660156 C 618.253906 263.933594 585.4375 247.289062 551.671875 232.914062 C 551.578125 232.726562 551.484375 232.535156 551.390625 232.347656 C 550.445312 230.078125 549.402344 227.804688 548.269531 225.539062 L 548.269531 225.253906 L 547.132812 223.171875 C 542.308594 214.09375 530.015625 192.53125 519.992188 189.597656 C 518.289062 189.03125 516.398438 188.84375 514.125 188.84375 C 504.480469 188.84375 485.753906 193.570312 480.175781 195.367188 C 477.902344 196.125 476.011719 196.789062 474.5 197.542969 C 473.269531 198.109375 472.136719 198.679688 471.191406 199.433594 C 470.433594 200 469.773438 200.570312 469.109375 201.136719 C 468.636719 201.609375 468.164062 202.175781 467.785156 202.648438 C 467.597656 202.554688 467.3125 202.554688 467.125 202.460938 C 472.988281 192.8125 477.621094 182.980469 479.605469 176.265625 C 481.214844 171.0625 482.066406 165.765625 482.824219 160.660156 C 483.011719 159.621094 483.105469 158.671875 483.296875 157.726562 C 486.320312 158.671875 488.96875 159.523438 491.429688 160.28125 C 550.917969 178.722656 617.875 206.621094 670.648438 239.628906 C 676.511719 243.316406 698.738281 256.9375 701.953125 260.8125 C 705.167969 264.691406 702.613281 288.242188 701.953125 294.859375 " fill-opacity="1" fill-rule="nonzero"/><path fill="#ffffff" d="M 118.117188 373.742188 L 135.125 429.878906 C 179.65625 564.605469 283.808594 667.125 410.289062 727.121094 C 556.136719 659.808594 668.96875 532.496094 701.996094 373.042969 C 703.894531 370.703125 703.539062 374.769531 703.476562 375.910156 C 702.851562 387.457031 700.753906 401.046875 698.914062 412.566406 C 675.230469 560.886719 594.054688 673.082031 467.464844 750.800781 C 459.855469 755.472656 415.171875 781.773438 410.15625 781.449219 C 406.429688 781.207031 385.0625 768.886719 379.96875 766.082031 C 231.222656 684.09375 128.84375 547.121094 118.117188 373.742188 " fill-opacity="1" fill-rule="nonzero"/></svg>