<svg xmlns="http://www.w3.org/2000/svg" xmlns:xlink="http://www.w3.org/1999/xlink" width="1080" zoomAndPan="magnify" viewBox="0 0 810 809.999993" height="1080" preserveAspectRatio="xMidYMid meet" version="1.0"><defs><clipPath id="76c5bd3c13"><path d="M 202.089844 81 L 607.839844 81 L 607.839844 735.75 L 202.089844 735.75 Z M 202.089844 81 " clip-rule="nonzero"/></clipPath></defs><g clip-path="url(#76c5bd3c13)"><path fill="#ffffff" d="M 99.832031 1039.84375 L 672.867188 1039.84375 L 672.867188 -106.226562 L 99.832031 -106.226562 Z M 99.832031 1039.84375 " fill-opacity="1" fill-rule="nonzero"/></g><path fill="#ffffff" d="M 407.546875 264.667969 L 388.539062 253.296875 C 388.355469 254.703125 389.636719 255.496094 390.617188 256.230469 C 395.996094 260.753906 413.539062 266.070312 404.980469 274.570312 C 404.734375 274.8125 404.492188 275.058594 404.1875 275.300781 L 385.847656 261.976562 C 385.601562 263.6875 386.519531 264.359375 387.5 265.339844 C 391.164062 269.128906 401.253906 272.917969 402.839844 277.746094 C 403.574219 279.765625 402.71875 282.027344 399.171875 284.472656 C 399.171875 284.53125 399.171875 284.53125 399.113281 284.59375 C 399.050781 284.59375 399.050781 284.65625 398.988281 284.65625 L 381.875 272.671875 C 381.203125 273.347656 383.648438 275.546875 384.257812 276.035156 C 386.640625 278.113281 394.652344 282.332031 395.875 284.410156 C 396.363281 285.265625 396.542969 286.242188 396.421875 287.160156 C 395.933594 287.589844 395.507812 288.015625 395.015625 288.445312 C 395.507812 288.078125 395.996094 287.648438 396.421875 287.222656 C 396.179688 289.542969 394.285156 291.867188 391.898438 293.515625 C 387.804688 296.207031 382.242188 296.820312 381.203125 291.378906 C 382.667969 291.195312 383.21875 292.660156 384.503906 293.027344 C 386.335938 293.640625 390.003906 293.761719 389.148438 291.132812 C 388.722656 289.789062 378.453125 286.058594 377.167969 283.371094 L 378.511719 288.015625 L 376.679688 288.199219 C 374.480469 294.617188 366.898438 300.914062 359.625 299.203125 C 358.097656 298.898438 357.421875 297.371094 355.835938 297.429688 L 342.507812 297.550781 L 337.191406 297.550781 C 337.863281 296.941406 338.535156 296.269531 339.148438 295.65625 C 339.941406 294.800781 340.796875 293.945312 341.714844 293.152344 L 343.851562 291.316406 L 343.851562 290.15625 L 346.054688 288.628906 C 354.613281 282.636719 360.417969 274.386719 365.980469 266.378906 C 369.527344 261.304688 372.890625 256.535156 377.046875 252.195312 C 377.777344 251.339844 378.574219 250.605469 379.429688 249.8125 L 381.875 247.550781 L 409.015625 260.265625 C 409.078125 260.324219 409.078125 260.324219 409.136719 260.386719 C 409.320312 261.730469 408.894531 263.199219 407.546875 264.667969 " fill-opacity="1" fill-rule="nonzero"/><path fill="#ffffff" d="M 409.015625 260.265625 L 381.875 247.550781 C 382.117188 247.429688 382.363281 247.304688 382.546875 247.183594 C 383.523438 246.632812 383.769531 246.511719 384.441406 246.511719 C 384.929688 246.511719 385.847656 246.632812 387.4375 247.183594 C 391.960938 248.835938 396.363281 250.972656 400.394531 253.601562 C 401.070312 253.96875 401.679688 254.398438 402.289062 254.886719 C 403.207031 255.496094 404.0625 256.109375 404.917969 256.78125 C 405.589844 257.269531 406.203125 257.757812 406.753906 258.308594 C 407.546875 258.859375 408.34375 259.53125 409.015625 260.265625 " fill-opacity="1" fill-rule="nonzero"/><path fill="#ffffff" d="M 396.421875 287.160156 L 396.421875 287.222656 C 395.996094 287.648438 395.507812 288.078125 395.015625 288.445312 C 395.507812 288.015625 395.933594 287.589844 396.421875 287.160156 " fill-opacity="1" fill-rule="nonzero"/><path fill="#ffffff" d="M 409.136719 260.324219 L 409.136719 260.386719 C 409.078125 260.324219 409.078125 260.324219 409.015625 260.265625 Z M 409.136719 260.324219 " fill-opacity="1" fill-rule="nonzero"/><path fill="#ffffff" d="M 303.742188 311.289062 C 302.640625 312.753906 301.726562 314.34375 300.992188 315.996094 L 300.929688 315.996094 C 300.503906 316.851562 300.136719 317.707031 299.769531 318.625 C 298.546875 321.988281 297.8125 325.285156 297.628906 328.648438 C 297.507812 329.566406 297.507812 330.296875 297.507812 330.847656 L 297.507812 335.066406 C 292.496094 339.773438 288.214844 345.703125 285.527344 351.9375 L 297.507812 338.246094 L 297.507812 391.914062 C 293.535156 392.894531 289.621094 393.199219 286.382812 392.097656 C 284.671875 391.546875 271.46875 380.789062 270.488281 379.078125 C 269.816406 378.039062 269.203125 376.878906 269.019531 375.71875 C 268.472656 358.660156 265.84375 346.925781 272.996094 335.191406 C 275.074219 331.703125 277.945312 328.28125 282.042969 324.675781 C 288.582031 318.929688 296.039062 314.957031 303.742188 311.289062 " fill-opacity="1" fill-rule="nonzero"/><path fill="#ffffff" d="M 413.953125 271.863281 C 413.953125 268.070312 413.402344 264.953125 413.953125 261.164062 C 414.078125 260.246094 413.28125 259.207031 414.933594 259.453125 C 420.3125 261.957031 418.417969 269.417969 413.953125 271.863281 " fill-opacity="1" fill-rule="nonzero"/><path fill="#ffffff" d="M 282.042969 324.675781 C 288.582031 318.929688 296.039062 314.957031 303.742188 311.289062 C 302.640625 312.753906 301.726562 314.34375 300.992188 315.996094 L 300.929688 315.996094 C 298.425781 317.035156 295.980469 318.132812 293.65625 319.417969 C 288.523438 322.109375 284.671875 325.164062 281.429688 329.074219 C 280.820312 330.605469 279.535156 333.476562 276.050781 334.394531 L 272.996094 335.191406 C 275.074219 331.703125 277.945312 328.28125 282.042969 324.675781 " fill-opacity="1" fill-rule="nonzero"/><path fill="#ffffff" d="M 375.273438 245.351562 C 374.292969 246.265625 373.316406 247.183594 372.460938 248.160156 C 361.703125 259.410156 355.34375 274.691406 342.570312 283.613281 C 332.054688 276.769531 321.605469 275.851562 309.683594 279.519531 C 309.5625 280.804688 311.148438 280.070312 311.945312 279.949219 C 321.847656 279.03125 330.285156 279.824219 337.742188 287.101562 L 337.742188 288.507812 C 335.722656 290.214844 334.074219 292.234375 332.117188 293.945312 C 330.832031 295.109375 329.488281 296.148438 328.082031 297.125 C 327.410156 297.125 326.921875 297.246094 326.308594 297.367188 C 318.972656 298.46875 312.3125 301.953125 307.238281 307.148438 L 307.175781 307.148438 C 301.554688 309.226562 295.929688 311.246094 290.734375 314.058594 C 285.476562 316.808594 280.648438 320.351562 276.550781 325.425781 C 275.636719 326.464844 275.636719 328.175781 274.476562 328.484375 C 271.050781 311.0625 277.164062 295.78125 289.632812 283.980469 L 286.273438 284.960938 C 284.925781 275.851562 282.972656 266.4375 285.050781 257.269531 C 285.355469 255.863281 285.78125 254.519531 286.332031 253.175781 C 290.367188 242.660156 300.085938 234.773438 311.027344 232.144531 C 311.699219 231.964844 313.289062 231.289062 313.167969 232.574219 C 305.769531 235.324219 299.230469 241.4375 295.378906 248.710938 C 296.601562 248.160156 297.824219 247.613281 299.046875 247 L 299.109375 246.9375 L 299.167969 246.9375 C 306.445312 238.015625 317.203125 231.78125 328.449219 230.921875 C 330.40625 230.742188 332.363281 230.742188 334.316406 230.984375 C 335.234375 231.046875 336.089844 231.167969 337.007812 231.351562 L 337.070312 231.351562 C 337.742188 231.472656 338.472656 231.597656 339.148438 231.78125 C 341.347656 232.269531 343.546875 233.0625 345.75 234.101562 C 350.148438 236.242188 352.65625 239.113281 355.164062 242.476562 C 352.960938 241.378906 351.007812 239.972656 349.292969 238.6875 C 351.007812 240.03125 352.960938 241.4375 355.164062 242.476562 L 355.222656 242.539062 L 355.285156 242.597656 L 355.34375 242.597656 C 355.773438 242.722656 356.078125 242.964844 356.566406 243.148438 C 356.75 243.210938 356.933594 243.269531 357.117188 243.394531 L 355.957031 239.421875 C 362.558594 240.460938 369.40625 242.109375 375.273438 245.351562 " fill-opacity="1" fill-rule="nonzero"/><path fill="#ffffff" d="M 355.164062 242.476562 C 352.960938 241.4375 351.003906 240.03125 349.292969 238.6875 C 351.003906 239.96875 352.960938 241.375 355.164062 242.476562 " fill-opacity="1" fill-rule="nonzero"/><path fill="#ffffff" d="M 355.222656 242.476562 L 355.222656 242.539062 L 355.160156 242.476562 Z M 355.222656 242.476562 " fill-opacity="1" fill-rule="nonzero"/><path fill="#ffffff" d="M 355.164062 242.476562 C 352.960938 241.4375 351.003906 240.03125 349.292969 238.6875 C 351.003906 239.96875 352.960938 241.375 355.164062 242.476562 " fill-opacity="1" fill-rule="nonzero"/><path fill="#ffffff" d="M 355.222656 242.476562 L 355.222656 242.539062 L 355.160156 242.476562 Z M 355.222656 242.476562 " fill-opacity="1" fill-rule="nonzero"/><path fill="#ffffff" d="M 355.164062 242.476562 C 352.960938 241.4375 351.003906 240.03125 349.292969 238.6875 C 351.003906 239.96875 352.960938 241.375 355.164062 242.476562 " fill-opacity="1" fill-rule="nonzero"/><path fill="#ffffff" d="M 396.421875 287.160156 L 396.421875 287.222656 C 395.996094 287.648438 395.507812 288.078125 395.015625 288.445312 C 395.507812 288.015625 395.933594 287.589844 396.421875 287.160156 " fill-opacity="1" fill-rule="nonzero"/><path fill="#ffffff" d="M 409.136719 260.324219 L 409.136719 260.386719 C 409.078125 260.324219 409.078125 260.324219 409.015625 260.265625 Z M 409.136719 260.324219 " fill-opacity="1" fill-rule="nonzero"/><path fill="#ffffff" d="M 413.953125 271.863281 C 413.953125 268.070312 413.402344 264.953125 413.953125 261.164062 C 414.078125 260.246094 413.28125 259.207031 414.933594 259.453125 C 420.3125 261.957031 418.417969 269.417969 413.953125 271.863281 " fill-opacity="1" fill-rule="nonzero"/><path fill="#ffffff" d="M 447.023438 230.785156 L 447.023438 245.089844 C 446.597656 244.78125 446.167969 244.355469 445.742188 243.867188 C 445.433594 243.4375 445.128906 243.011719 444.824219 242.460938 C 444.027344 241.054688 443.417969 239.21875 443.171875 236.773438 C 442.988281 235.429688 443.050781 234.207031 443.292969 233.167969 C 443.109375 232.863281 442.929688 232.496094 442.746094 232.007812 C 442.625 231.824219 442.5625 231.578125 442.441406 231.335938 C 443.417969 230.84375 444.515625 230.417969 445.617188 230.050781 Z M 447.023438 230.785156 " fill-opacity="1" fill-rule="nonzero"/><path fill="#ffffff" d="M 446.839844 247.59375 C 446.777344 247.59375 446.777344 247.59375 446.777344 247.53125 C 446.960938 247.472656 447.144531 247.410156 447.390625 247.347656 C 447.390625 247.289062 447.390625 247.167969 447.328125 247.105469 C 450.691406 247.777344 447.636719 247.839844 446.839844 247.59375 " fill-opacity="1" fill-rule="nonzero"/><path fill="#ffffff" d="M 469.835938 224.261719 C 468.859375 225.667969 467.085938 226.585938 464.886719 227.316406 C 464.089844 226.953125 463.234375 226.707031 462.441406 226.460938 Z M 469.835938 224.261719 " fill-opacity="1" fill-rule="nonzero"/><path fill="#ffffff" d="M 413.953125 261.164062 C 414.078125 260.246094 413.28125 259.207031 414.933594 259.453125 C 420.3125 261.960938 418.417969 269.417969 413.953125 271.863281 C 413.953125 268.070312 413.402344 264.953125 413.953125 261.164062 " fill-opacity="1" fill-rule="nonzero"/><path fill="#ffffff" d="M 442.746094 232.007812 C 442.621094 231.824219 442.5625 231.578125 442.4375 231.332031 C 443.417969 230.847656 444.519531 230.417969 445.617188 230.050781 L 447.023438 230.785156 L 447.023438 245.085938 C 446.597656 244.78125 446.167969 244.355469 445.742188 243.867188 C 445.433594 243.4375 445.128906 243.011719 444.824219 242.460938 C 444.027344 241.054688 443.417969 239.21875 443.171875 236.773438 C 442.988281 235.429688 443.050781 234.207031 443.296875 233.167969 C 443.113281 232.863281 442.929688 232.496094 442.746094 232.007812 " fill-opacity="1" fill-rule="nonzero"/><path fill="#ffffff" d="M 446.78125 247.535156 C 446.964844 247.472656 447.148438 247.410156 447.390625 247.351562 C 447.390625 247.289062 447.390625 247.167969 447.328125 247.105469 C 450.691406 247.777344 447.636719 247.839844 446.839844 247.59375 C 446.78125 247.59375 446.78125 247.59375 446.78125 247.535156 " fill-opacity="1" fill-rule="nonzero"/><path fill="#ffffff" d="M 355.222656 242.476562 L 355.222656 242.539062 L 355.160156 242.476562 Z M 355.222656 242.476562 " fill-opacity="1" fill-rule="nonzero"/><path fill="#ffffff" d="M 469.835938 224.261719 C 468.859375 225.667969 467.085938 226.585938 464.886719 227.316406 C 464.089844 226.953125 463.234375 226.707031 462.441406 226.460938 Z M 469.835938 224.261719 " fill-opacity="1" fill-rule="nonzero"/><path fill="#ffffff" d="M 538.664062 353.910156 C 536.894531 355.625 532.796875 354.707031 532.125 352.199219 C 532.613281 344.253906 533.347656 337.101562 531.453125 329.277344 C 529.066406 319.070312 523.445312 309.839844 519.53125 300.179688 C 527.601562 311.550781 536.28125 325.425781 538.664062 339.363281 C 539.15625 342.175781 540.4375 352.140625 538.664062 353.910156 M 544.351562 363.386719 C 544.105469 354.953125 544.777344 347.308594 543.617188 338.570312 C 539.703125 310.753906 512.6875 285.570312 500.03125 261.363281 C 496.121094 253.726562 493.675781 244.617188 489.519531 236.667969 C 489.519531 236.609375 489.457031 236.546875 489.457031 236.488281 C 487.195312 232.207031 479.3125 218.882812 475.335938 217.722656 C 472.039062 216.621094 457.613281 220.105469 453.515625 221.449219 C 452.351562 221.816406 451.375 222.121094 450.519531 222.550781 C 447.464844 224.015625 446.484375 226.035156 448.808594 230.496094 L 462.441406 226.460938 L 469.835938 224.261719 C 468.859375 225.667969 467.085938 226.585938 464.886719 227.316406 C 458.34375 229.519531 448.5625 229.886719 449.238281 236.121094 C 450.152344 244.25 454.492188 239.117188 458.589844 237.585938 C 463.113281 235.875 468.0625 234.957031 472.585938 233.246094 C 473.871094 234.347656 468.980469 236.121094 468.429688 236.363281 C 459.015625 240.15625 447.585938 238.566406 456.386719 252.503906 L 460.238281 248.832031 L 475.335938 242.964844 C 475.582031 244.617188 475.398438 244.371094 474.480469 245.226562 C 471.242188 248.101562 459.320312 250.117188 458.773438 253.664062 C 458.40625 256.046875 460.726562 260.753906 462.5625 262.28125 C 464.761719 264.117188 471.792969 265.339844 472.585938 261.546875 C 469.347656 261.914062 465.925781 263.199219 465.679688 258.796875 C 467.636719 258.738281 470.265625 258.554688 472.039062 257.882812 C 473.808594 257.269531 474.847656 255.4375 476.742188 255.375 L 475.335938 257.757812 L 478.824219 258.796875 C 475.765625 268.089844 483.34375 277.503906 493.246094 274.691406 C 487.011719 280.804688 479.1875 278.175781 475.214844 270.960938 C 474.421875 269.617188 474.175781 266.316406 472.953125 265.707031 C 470.449219 264.421875 472.832031 271.390625 471.242188 271.207031 C 470.507812 266.011719 467.574219 267.660156 464.273438 266.804688 C 457.917969 265.03125 456.265625 257.085938 452.109375 252.683594 C 448.808594 253.480469 445.445312 252.867188 445.628906 257.390625 C 438.601562 250.546875 428.085938 251.953125 419.40625 254.640625 C 419.652344 248.710938 428.453125 252.011719 431.878906 249.507812 C 429.675781 247.792969 427.167969 245.960938 425.519531 243.699219 C 422.464844 244.921875 419.285156 245.535156 415.863281 245.535156 C 399.90625 245.535156 385.847656 231.535156 378.878906 223.160156 C 377.597656 221.632812 376.496094 220.167969 375.515625 218.699219 C 375.394531 218.515625 375.273438 218.269531 375.152344 218.085938 C 372.707031 214.175781 371.238281 210.445312 370.382812 206.65625 C 369.097656 208.980469 367.570312 211.117188 365.613281 212.953125 C 358.460938 219.554688 348.253906 221.695312 339.636719 225.546875 C 342.082031 226.09375 344.402344 226.828125 346.726562 227.867188 C 345.566406 228.234375 344.464844 228.601562 343.304688 229.027344 C 344.648438 229.335938 345.871094 229.703125 346.972656 230.128906 C 351.066406 231.78125 354.671875 235.753906 358.953125 237.527344 C 361.949219 238.808594 373.5625 242.355469 376.496094 242.78125 C 377.960938 243.027344 379.0625 242.046875 380.652344 241.316406 C 382.484375 240.398438 384.929688 239.726562 389.515625 241.4375 C 398.804688 244.800781 407.363281 250.117188 414.273438 256.71875 C 416.167969 258.554688 418.792969 258.003906 419.40625 261.914062 C 420.078125 266.253906 416.65625 274.507812 413.539062 277.378906 C 411.707031 278.96875 410.117188 278.359375 409.257812 278.96875 C 408.769531 279.277344 405.101562 287.039062 403.574219 288.8125 C 402.476562 290.035156 396.851562 295.167969 395.628906 296.085938 C 395.140625 296.453125 394.648438 296.695312 394.160156 296.941406 L 403.574219 296.941406 L 405.164062 294.921875 L 468.796875 294.921875 C 469.101562 289.421875 468.980469 284.042969 467.636719 280.683594 C 464.578125 273.347656 457.671875 270.71875 451.621094 266.988281 C 450.949219 266.5 449.480469 265.523438 451.5 265.707031 C 462.746094 269.984375 474.238281 275.117188 473.992188 289.117188 C 478.148438 288.566406 484.75 285.023438 485.730469 291.195312 C 481.082031 290.707031 476.316406 291.988281 472.769531 294.921875 L 476.195312 294.921875 C 481.511719 294.921875 486.707031 296.085938 491.476562 298.226562 C 490.863281 292.96875 489.582031 287.894531 487.074219 282.941406 C 491.171875 284.65625 494.347656 281.964844 498.136719 280.867188 C 498.078125 283.003906 495.753906 283.675781 494.835938 285.570312 C 493.429688 288.503906 495.203125 295.535156 496.183594 300.855469 C 497.832031 301.953125 499.300781 303.054688 500.523438 304.214844 L 502.355469 297.246094 L 509.8125 317.234375 C 509.996094 317.601562 510.730469 319.558594 510.730469 319.558594 L 510.730469 319.679688 C 512.074219 323.46875 512.808594 327.445312 512.808594 331.476562 L 512.808594 359.046875 C 517.148438 362.226562 527.601562 368.277344 526.804688 372.066406 C 526.074219 375.246094 522.464844 374.9375 519.960938 374.695312 C 517.394531 374.449219 515.007812 373.59375 512.808594 372.433594 L 512.808594 374.757812 L 511.160156 376.347656 C 512.074219 376.894531 512.992188 377.445312 513.96875 377.8125 C 519.59375 380.074219 534.875 381.96875 540.375 380.074219 C 548.261719 377.382812 544.472656 368.949219 544.351562 363.386719 " fill-opacity="1" fill-rule="nonzero"/><path fill="#ffffff" d="M 446.839844 247.59375 C 446.777344 247.59375 446.777344 247.59375 446.777344 247.53125 L 446.71875 247.53125 C 443.234375 246.25 445.066406 244.109375 443.90625 241.480469 C 443.480469 240.503906 441.339844 239.28125 440.484375 237.996094 C 438.28125 234.636719 439.871094 232.679688 442.4375 231.332031 C 443.417969 230.84375 444.519531 230.417969 445.617188 230.050781 L 447.023438 230.785156 L 447.023438 247.042969 C 447.144531 247.042969 447.207031 247.105469 447.328125 247.105469 C 450.691406 247.777344 447.636719 247.839844 446.839844 247.59375 " fill-opacity="1" fill-rule="nonzero"/><path fill="#ffffff" d="M 451.976562 174.058594 C 450.875 177.238281 449.714844 180.597656 448.796875 184.207031 C 448.367188 185.917969 448 187.691406 447.695312 189.523438 C 447.023438 193.558594 446.472656 197.652344 445.3125 201.503906 C 443.96875 205.96875 440.789062 212.445312 437 218.4375 C 433.394531 224.183594 429.234375 229.5 425.628906 232.128906 C 412 242.09375 395.1875 226.933594 386.628906 216.664062 C 386.386719 216.359375 386.140625 216.050781 385.898438 215.746094 C 379.601562 207.800781 379.171875 201.257812 379.234375 190.929688 C 378.074219 189.644531 376.359375 188.238281 374.710938 186.832031 C 372.511719 184.878906 370.433594 182.800781 369.574219 180.597656 C 368.597656 177.972656 369.332031 175.648438 368.902344 173.019531 C 368.902344 172.898438 368.84375 172.777344 368.78125 172.652344 C 368.046875 169.105469 365.175781 167.394531 366.640625 162.8125 C 368.230469 157.554688 373.488281 160.855469 375.933594 163.542969 C 375.566406 155.230469 374.648438 147.894531 375.75 141.050781 C 376.789062 134.9375 379.417969 129.253906 385.589844 123.8125 C 406.984375 105.109375 443.113281 115.925781 453.75 141.234375 C 453.992188 141.84375 454.238281 142.457031 454.480469 143.007812 L 454.480469 143.066406 C 458.882812 155.046875 455.519531 163.972656 451.976562 174.058594 " fill-opacity="1" fill-rule="nonzero"/><path fill="#ffffff" d="M 451.976562 174.058594 C 450.875 177.238281 449.714844 180.597656 448.796875 184.207031 C 448.367188 185.917969 448 187.691406 447.695312 189.523438 C 447.023438 193.558594 446.472656 197.652344 445.3125 201.503906 C 443.96875 205.96875 440.789062 212.445312 437 218.4375 C 433.394531 224.183594 429.234375 229.5 425.628906 232.128906 C 412 242.09375 395.1875 226.933594 386.628906 216.664062 C 386.386719 216.359375 386.140625 216.050781 385.898438 215.746094 C 379.601562 207.800781 379.171875 201.257812 379.234375 190.929688 C 378.074219 189.644531 376.359375 188.238281 374.710938 186.832031 C 372.511719 184.878906 370.433594 182.800781 369.574219 180.597656 C 368.597656 177.972656 369.332031 175.648438 368.902344 173.019531 C 368.902344 172.898438 368.84375 172.777344 368.78125 172.652344 C 368.046875 169.105469 365.175781 167.394531 366.640625 162.8125 C 368.230469 157.554688 373.488281 160.855469 375.933594 163.542969 C 375.566406 155.230469 374.648438 147.894531 375.75 141.050781 C 376.789062 134.9375 379.417969 129.253906 385.589844 123.8125 C 406.984375 105.109375 443.113281 115.925781 453.75 141.234375 C 453.992188 141.84375 454.238281 142.457031 454.480469 143.007812 L 454.480469 143.066406 C 458.882812 155.046875 455.519531 163.972656 451.976562 174.058594 " fill-opacity="1" fill-rule="nonzero"/><path fill="#ffffff" d="M 451.976562 174.058594 C 450.875 177.238281 449.714844 180.597656 448.796875 184.207031 C 448.367188 185.917969 448 187.691406 447.695312 189.523438 C 447.023438 193.558594 446.472656 197.652344 445.3125 201.503906 C 443.96875 205.96875 440.789062 212.445312 437 218.4375 C 433.394531 224.183594 429.234375 229.5 425.628906 232.128906 C 412 242.09375 395.1875 226.933594 386.628906 216.664062 C 386.386719 216.359375 386.140625 216.050781 385.898438 215.746094 C 379.601562 207.800781 379.171875 201.257812 379.234375 190.929688 C 378.074219 189.644531 376.359375 188.238281 374.710938 186.832031 C 372.511719 184.878906 370.433594 182.800781 369.574219 180.597656 C 368.597656 177.972656 369.332031 175.648438 368.902344 173.019531 C 368.902344 172.898438 368.84375 172.777344 368.78125 172.652344 C 368.046875 169.105469 365.175781 167.394531 366.640625 162.8125 C 368.230469 157.554688 373.488281 160.855469 375.933594 163.542969 C 375.566406 155.230469 374.648438 147.894531 375.75 141.050781 C 376.789062 134.9375 379.417969 129.253906 385.589844 123.8125 C 406.984375 105.109375 443.113281 115.925781 453.75 141.234375 C 453.992188 141.84375 454.238281 142.457031 454.480469 143.007812 L 454.480469 143.066406 C 458.882812 155.046875 455.519531 163.972656 451.976562 174.058594 " fill-opacity="1" fill-rule="nonzero"/><path fill="#d33200" d="M 376.9375 303.339844 L 394.359375 303.339844 L 394.359375 347.933594 L 380.699219 361.628906 L 379.804688 362.527344 L 371.847656 370.519531 L 369.660156 372.707031 L 364.675781 377.726562 L 356.683594 385.71875 L 376.113281 405.472656 L 385.363281 414.867188 L 385.398438 414.867188 L 394.359375 423.972656 L 394.359375 536.789062 L 364.570312 498.609375 L 364.101562 436.015625 L 335.171875 407.410156 L 335.171875 460.070312 L 305.238281 422 L 305.238281 329.257812 C 305.238281 328.757812 305.238281 328.289062 305.347656 327.824219 C 305.417969 325.0625 306.027344 322.445312 306.996094 319.972656 C 310.257812 311.40625 317.929688 305.058594 327.25 303.660156 C 328.503906 303.445312 329.796875 303.339844 331.085938 303.339844 L 335.171875 303.339844 L 335.171875 364.496094 L 340.910156 358.832031 L 350.445312 349.40625 L 362.5625 337.429688 L 364.425781 335.566406 L 364.425781 302.925781 Z M 376.9375 303.339844 " fill-opacity="1" fill-rule="nonzero"/><path fill="#d33200" d="M 500.902344 329.867188 L 500.902344 369.121094 L 499.898438 370.125 L 470.46875 370.125 L 470.46875 331.765625 L 440.675781 331.765625 L 440.675781 449.496094 L 452.292969 435.621094 L 489.644531 435.621094 L 410.277344 538.757812 L 410.277344 301.367188 L 472.402344 301.367188 C 478.101562 301.367188 483.371094 303.050781 487.816406 305.882812 C 489.574219 307.066406 491.222656 308.394531 492.65625 309.863281 C 495.382812 312.589844 497.53125 315.886719 498.929688 319.542969 L 498.929688 320.761719 L 499.109375 320.078125 C 500.257812 323.128906 500.902344 326.460938 500.902344 329.867188 " fill-opacity="1" fill-rule="nonzero"/><path fill="#ffffff" d="M 330.636719 224.671875 C 329.722656 224.671875 328.804688 224.730469 327.949219 224.792969 C 324.160156 225.097656 320.429688 225.894531 316.824219 227.179688 L 315.171875 225.648438 L 312.484375 225.648438 C 311.199219 225.648438 310.097656 226.015625 309.609375 226.199219 C 294.574219 229.746094 282.347656 241.726562 279.046875 255.90625 C 278.984375 256.273438 278.863281 256.640625 278.804688 257.007812 C 277.03125 257.925781 275.257812 258.839844 273.546875 259.757812 C 270.304688 261.46875 252.519531 271.066406 251.417969 272.535156 C 249.949219 274.550781 250.441406 286.652344 250.5625 290.078125 C 251.234375 313.121094 254.351562 336.960938 259.304688 359.394531 C 270.0625 408.050781 292.433594 452.675781 324.953125 490.207031 C 325.136719 490.820312 324.097656 490.878906 323.609375 490.695312 C 321.652344 489.777344 312.484375 482.078125 310.28125 480.121094 C 248.789062 426.878906 221.648438 339.894531 216.636719 260.675781 L 217.429688 258.78125 C 258.019531 229.378906 306.675781 207.738281 354.539062 192.945312 C 358.085938 191.847656 362.789062 190.378906 367.988281 188.789062 C 369.085938 189.953125 370.308594 191.050781 371.472656 192.03125 L 364.992188 203.707031 C 363.953125 205.660156 362.730469 207.25 361.445312 208.410156 C 357.289062 212.324219 351.480469 214.464844 345.308594 216.726562 C 342.558594 217.765625 339.746094 218.742188 337.117188 219.964844 L 336.566406 220.210938 C 334.917969 220.820312 332.105469 221.921875 330.636719 224.671875 " fill-opacity="1" fill-rule="nonzero"/><path fill="#d33200" d="M 594.890625 279.929688 C 588.167969 354.136719 553.628906 446.5625 490.117188 490.085938 C 489.261719 490.695312 486.449219 493.203125 485.65625 492.53125 C 514.628906 461.292969 535.597656 423.210938 547.945312 382.441406 C 549.167969 378.46875 550.265625 374.433594 551.304688 370.460938 L 551.304688 370.398438 C 551.980469 367.953125 552.589844 365.507812 553.140625 363.0625 C 559.191406 336.902344 561.515625 312.265625 561.882812 285.492188 C 561.941406 281.335938 564.144531 276.570312 561.269531 272.042969 C 540.792969 259.941406 519.582031 249.183594 497.757812 239.890625 C 497.699219 239.769531 497.636719 239.648438 497.574219 239.523438 C 496.964844 238.058594 496.292969 236.589844 495.558594 235.125 L 495.558594 234.941406 L 494.824219 233.597656 C 491.707031 227.726562 483.761719 213.789062 477.28125 211.894531 C 476.179688 211.527344 474.960938 211.40625 473.492188 211.40625 C 467.257812 211.40625 455.15625 214.464844 451.546875 215.625 C 450.078125 216.113281 448.855469 216.542969 447.878906 217.03125 C 447.085938 217.398438 446.351562 217.765625 445.742188 218.253906 C 445.25 218.621094 444.824219 218.988281 444.394531 219.351562 C 444.089844 219.660156 443.785156 220.027344 443.539062 220.332031 C 443.417969 220.269531 443.234375 220.269531 443.113281 220.210938 C 446.902344 213.972656 449.898438 207.617188 451.179688 203.277344 C 452.21875 199.914062 452.769531 196.492188 453.257812 193.191406 C 453.382812 192.519531 453.441406 191.90625 453.566406 191.296875 C 455.519531 191.90625 457.230469 192.457031 458.820312 192.945312 C 497.269531 204.867188 540.546875 222.898438 574.65625 244.234375 C 578.445312 246.617188 592.8125 255.417969 594.890625 257.925781 C 596.96875 260.429688 595.316406 275.652344 594.890625 279.929688 " fill-opacity="1" fill-rule="nonzero"/><path fill="#ffffff" d="M 217.539062 330.914062 L 228.53125 367.195312 C 257.3125 454.277344 324.628906 520.535156 406.378906 559.316406 C 500.644531 515.808594 573.574219 433.523438 594.917969 330.460938 C 596.144531 328.949219 595.914062 331.578125 595.875 332.3125 C 595.472656 339.777344 594.113281 348.5625 592.925781 356.007812 C 577.617188 451.871094 525.152344 524.386719 443.332031 574.617188 C 438.414062 577.640625 409.535156 594.636719 406.292969 594.429688 C 403.882812 594.273438 390.074219 586.308594 386.78125 584.496094 C 290.640625 531.503906 224.46875 442.976562 217.539062 330.914062 " fill-opacity="1" fill-rule="nonzero"/><path fill="#ffffff" d="M 430.4375 703.882812 L 445.761719 703.882812 C 446.089844 703.882812 449.117188 701.839844 449.222656 701.398438 L 447.738281 698.9375 L 431.917969 698.9375 Z M 459.605469 675.207031 C 467.199219 676.550781 466.882812 683.003906 464.261719 688.757812 C 463.570312 690.273438 461.433594 691.667969 461.238281 692.660156 C 460.992188 693.902344 463.082031 696.058594 463.117188 698.425781 C 463.175781 702.464844 458.113281 712.78125 453.671875 712.78125 L 414.617188 712.78125 L 420.484375 689.488281 C 421.113281 689.039062 433.804688 688.953125 435.910156 688.984375 C 440.9375 689.0625 450.996094 693.140625 451.203125 685.097656 L 432.414062 685.097656 C 432.332031 685.097656 432.578125 683.898438 432.070312 683.496094 C 428.996094 681.078125 424.929688 678.957031 423.515625 675.207031 C 434.273438 676.546875 449.414062 673.402344 459.605469 675.207031 " fill-opacity="1" fill-rule="nonzero"/><path fill="#ffffff" d="M 567.8125 622.773438 C 567.941406 626.878906 568.378906 631.101562 564.992188 634.050781 L 533.980469 634.050781 C 533.3125 644.351562 553.925781 635.050781 557.179688 639.613281 C 558.367188 641.597656 557.089844 648.234375 555.449219 649.320312 L 531.089844 650.894531 L 530.605469 656.605469 C 531.003906 657.167969 532.046875 655.480469 532.289062 655.480469 L 559.917969 655.480469 L 557.664062 665.628906 L 512.550781 665.628906 C 515.984375 651.304688 518.675781 636.199219 524.390625 622.773438 Z M 567.8125 622.773438 " fill-opacity="1" fill-rule="nonzero"/><path fill="#ffffff" d="M 268.558594 684.761719 C 271.820312 691.402344 265.867188 697.679688 266.59375 704.535156 C 271.238281 702.253906 276.832031 704.460938 281.695312 703.339844 C 285.476562 702.46875 283.875 699.632812 291.996094 699.03125 C 294.988281 698.8125 299.476562 697.886719 298.792969 701.613281 C 297.945312 706.234375 294.417969 711.242188 289.59375 712.21875 C 286.042969 712.9375 258.15625 712.9375 255.726562 711.929688 C 252.671875 710.660156 252.492188 706.875 252.714844 704.050781 C 253 700.417969 256.488281 686.992188 257.984375 683.578125 C 260.324219 678.226562 264.230469 675.492188 270.039062 674.867188 C 275.492188 674.285156 293.402344 674.128906 298.289062 675.300781 C 305.703125 677.078125 304.28125 682.945312 302.050781 688.585938 L 289.929688 688.78125 L 287.839844 684.761719 Z M 268.558594 684.761719 " fill-opacity="1" fill-rule="nonzero"/><path fill="#ffffff" d="M 344.730469 654.796875 C 348.800781 653.621094 352.839844 629.117188 354.851562 624.316406 L 370.101562 623.222656 C 367.09375 631.574219 364.121094 656.007812 358.289062 661.589844 C 352.148438 667.464844 330.988281 664.605469 322.367188 664.238281 C 316.671875 663.992188 310.285156 667.488281 309.597656 657.820312 L 318.914062 623.144531 L 332.890625 623.222656 L 326.121094 654.796875 Z M 344.730469 654.796875 " fill-opacity="1" fill-rule="nonzero"/><path fill="#ffffff" d="M 445.074219 622.570312 L 433.816406 664.882812 L 420.257812 665.429688 C 419.667969 659.441406 422.933594 653.996094 423.980469 648.210938 C 424.328125 646.296875 425.488281 645.660156 423.074219 644.003906 L 409.53125 660.90625 L 406.738281 658.664062 C 408.988281 668.203125 397.46875 666.039062 391.429688 664.371094 L 386.414062 644.003906 C 384.855469 643.820312 384.507812 646.707031 384.136719 647.90625 C 383.183594 651.003906 380.875 663.054688 379.210938 664.414062 C 377.230469 666.035156 366.007812 666.453125 365.085938 663.585938 L 375.199219 622.621094 L 396.621094 623.089844 L 403.910156 649.648438 C 404.769531 646.445312 406.210938 644.09375 408.050781 641.375 C 410.582031 637.628906 417.621094 627.1875 420.21875 624.539062 C 421.074219 623.667969 421.964844 623.066406 423.082031 622.570312 Z M 445.074219 622.570312 " fill-opacity="1" fill-rule="nonzero"/><path fill="#ffffff" d="M 420.726562 674.609375 L 410.855469 711.707031 L 398.96875 712.1875 C 398.453125 706.9375 401.316406 702.160156 402.234375 697.089844 C 402.539062 695.414062 403.558594 694.855469 401.441406 693.398438 L 389.566406 708.21875 L 387.117188 706.253906 C 389.089844 714.617188 378.988281 712.722656 373.695312 711.257812 L 369.296875 693.402344 C 367.933594 693.242188 367.628906 695.769531 367.304688 696.824219 C 366.464844 699.539062 364.441406 710.101562 362.984375 711.296875 C 361.25 712.71875 351.410156 713.082031 350.597656 710.566406 L 359.464844 674.65625 L 378.25 675.066406 L 384.636719 698.351562 C 385.390625 695.542969 386.65625 693.480469 388.269531 691.09375 C 390.488281 687.8125 396.660156 678.660156 398.9375 676.335938 C 399.6875 675.570312 400.46875 675.042969 401.445312 674.609375 Z M 420.726562 674.609375 " fill-opacity="1" fill-rule="nonzero"/><path fill="#ffffff" d="M 511.617188 712.257812 L 485.910156 712.257812 L 495.859375 706.710938 C 496.363281 699.023438 492.636719 691.984375 491.347656 684.558594 C 490.476562 684.558594 491.167969 689.667969 490.339844 691.472656 C 489.289062 693.769531 478.4375 707.03125 476.011719 709.824219 C 475.414062 710.515625 475.082031 711.34375 475.03125 712.257812 L 461.1875 712.257812 L 486.871094 678.113281 L 488.871094 677.652344 L 490.847656 682.585938 L 490.277344 675.609375 L 501.746094 675.160156 Z M 511.617188 712.257812 " fill-opacity="1" fill-rule="nonzero"/><path fill="#ffffff" d="M 284.253906 622.746094 C 285.628906 624.136719 281.226562 636.453125 284.8125 636.261719 C 292.886719 625.976562 302.164062 620.441406 315.820312 622.753906 C 316.40625 624.984375 314.890625 624.9375 313.925781 625.921875 C 310.855469 629.058594 297.109375 640.011719 293.488281 641.613281 C 292.46875 642.066406 291.023438 641.90625 289.882812 641.929688 L 304.523438 663.921875 C 290.453125 671.292969 286.328125 658.917969 279.175781 649.839844 L 272.980469 665.054688 L 260.511719 665.09375 L 259.644531 661.972656 L 270.132812 623.859375 Z M 284.253906 622.746094 " fill-opacity="1" fill-rule="nonzero"/><path fill="#ffffff" d="M 518.832031 623.339844 L 516.578125 634.617188 L 496.839844 634.617188 C 496.65625 634.617188 493.542969 635.722656 494.027344 636.859375 L 498.078125 637.910156 L 491.617188 664.925781 L 477.101562 665.0625 L 483.917969 637.4375 C 483.535156 632.351562 471.6875 635.417969 468.085938 634.609375 L 472.03125 623.339844 Z M 518.832031 623.339844 " fill-opacity="1" fill-rule="nonzero"/><path fill="#ffffff" d="M 557.511719 675.417969 L 555.53125 685.304688 L 538.226562 685.304688 C 538.066406 685.304688 535.335938 686.273438 535.761719 687.273438 L 539.3125 688.195312 L 533.648438 711.875 L 520.921875 712 L 526.898438 687.777344 C 526.5625 683.320312 516.175781 686.007812 513.015625 685.300781 L 516.476562 675.417969 Z M 557.511719 675.417969 " fill-opacity="1" fill-rule="nonzero"/><path fill="#ffffff" d="M 464.902344 622.773438 L 454.59375 665.488281 L 440.082031 665.628906 L 451.246094 623.476562 Z M 464.902344 622.773438 " fill-opacity="1" fill-rule="nonzero"/><path fill="#ffffff" d="M 317.351562 702.609375 C 321.878906 701.988281 327.5 703.058594 332.183594 702.609375 C 334.828125 702.609375 337.875 688.183594 337.695312 685.402344 C 337.125 683.230469 318.824219 683.285156 315.875 684.824219 L 318.894531 688.257812 L 315.878906 703.597656 C 316.238281 704.097656 317.074219 702.644531 317.351562 702.609375 M 316.625 675.183594 C 322.796875 674.21875 338.714844 674.222656 345.039062 674.921875 C 356.441406 676.183594 352.097656 684.015625 350.199219 691.945312 C 349.113281 696.46875 346.589844 706.898438 343.082031 709.550781 C 336.558594 714.480469 321.285156 712.308594 313.234375 711.875 C 309.152344 711.652344 302.4375 713.933594 301.195312 706.820312 C 300.796875 704.542969 306.074219 684.632812 307.457031 681.832031 C 309.550781 677.597656 312 675.90625 316.625 675.183594 " fill-opacity="1" fill-rule="nonzero"/></svg>